<svg width="1080" height="1080" viewBox="0 0 1080 1080" fill="none" xmlns="http://www.w3.org/2000/svg">
<rect width="1080" height="1080" fill="white"/>
<path d="M526.057 395.566C524.633 396.404 523.125 397.242 521.701 398.08C523.209 401.013 524.549 403.947 525.722 406.964C547.67 463.029 511.565 526.804 459.375 543.9C456.443 544.989 453.679 545.911 450.663 546.749C453.428 554.711 456.276 562.672 459.04 570.634C462.475 569.209 465.742 567.784 469.093 566.192C529.827 538.955 560.989 461.017 531.334 404.449C529.743 401.349 528.067 398.416 526.224 395.482L526.057 395.566Z" fill="#A37E2C"/>
<path d="M551.943 395.566C553.367 396.404 554.875 397.242 556.299 398.08C554.791 401.013 553.451 403.947 552.278 406.964C530.33 463.029 566.435 526.804 618.625 543.9C621.556 544.989 624.321 545.911 627.337 546.749C624.572 554.711 621.724 562.672 618.96 570.634C615.525 569.209 612.258 567.784 608.907 566.192C548.173 538.955 517.01 461.017 546.665 404.449C548.257 401.349 549.932 398.416 551.775 395.482L551.943 395.566Z" fill="#A37E2C"/>
<path d="M512.905 389.281C518.503 389.281 523.041 384.741 523.041 379.14C523.041 373.54 518.503 369 512.905 369C507.307 369 502.769 373.54 502.769 379.14C502.769 384.741 507.307 389.281 512.905 389.281Z" fill="#A37E2C"/>
<path d="M565.01 389.281C570.608 389.281 575.147 384.741 575.147 379.14C575.147 373.54 570.608 369 565.01 369C559.412 369 554.874 373.54 554.874 379.14C554.874 384.741 559.412 389.281 565.01 389.281Z" fill="#A37E2C"/>
<path d="M183.435 692.066C184.189 692.485 185.613 693.072 187.791 693.993C189.969 694.831 192.482 695.334 195.414 695.334C197.843 695.334 199.77 694.915 201.278 694.161C202.786 693.407 203.958 692.15 204.712 690.474C205.466 688.798 205.969 686.702 206.304 684.021C206.555 681.423 206.723 678.238 206.723 674.635V638.096H223.226V674.132C223.226 679.412 222.891 684.272 222.304 688.714C221.718 693.072 220.461 696.927 218.618 700.111C216.775 703.296 214.011 705.81 210.325 707.486C206.639 709.162 201.697 710 195.581 710C192.398 710 189.55 709.665 187.037 708.911C184.524 708.156 182.178 707.067 180 705.558L183.518 692.066H183.435Z" fill="#006039"/>
<path d="M231.854 673.042C231.854 668.768 232.607 664.494 234.199 660.304C235.791 656.114 238.136 652.259 241.236 648.823C244.335 645.387 248.105 642.621 252.545 640.61C256.985 638.599 261.927 637.509 267.54 637.509C274.242 637.509 280.022 638.934 284.964 641.867C289.907 644.716 293.593 648.488 296.106 653.097L283.373 662.064C282.367 659.55 280.943 657.539 279.184 656.114C277.425 654.689 275.498 653.684 273.32 653.097C271.226 652.51 269.132 652.259 267.121 652.259C264.022 652.259 261.341 652.846 258.995 654.103C256.65 655.36 254.723 657.036 253.131 659.047C251.623 661.142 250.451 663.405 249.697 666.003C248.943 668.517 248.524 671.031 248.524 673.545C248.524 676.395 248.943 679.16 249.864 681.758C250.786 684.356 252.042 686.702 253.718 688.714C255.393 690.725 257.32 692.317 259.665 693.491C262.011 694.664 264.608 695.25 267.456 695.25C269.467 695.25 271.477 694.915 273.571 694.329C275.666 693.742 277.592 692.653 279.352 691.144C281.111 689.636 282.451 687.708 283.456 685.278L297.027 693.323C295.519 696.843 293.174 699.776 289.991 702.29C286.807 704.804 283.121 706.648 279.1 707.989C275.079 709.33 271.058 709.916 267.037 709.916C261.844 709.916 257.152 708.827 252.88 706.732C248.608 704.637 244.838 701.787 241.738 698.267C238.639 694.748 236.126 690.809 234.45 686.367C232.775 682.009 231.854 677.484 231.854 672.959V673.042Z" fill="#006039"/>
<path d="M335.813 709.916C330.117 709.916 325.258 708.994 321.237 707.067C317.216 705.139 313.949 702.541 311.436 699.189C308.923 695.837 307.08 692.066 305.907 687.792C304.734 683.518 304.148 679.076 304.148 674.467V638.012H320.651V674.467C320.651 677.232 320.902 679.83 321.489 682.261C321.991 684.775 322.913 686.954 324.085 688.797C325.258 690.725 326.85 692.233 328.777 693.407C330.703 694.58 333.133 695.167 335.897 695.167C338.662 695.167 341.091 694.58 343.018 693.49C344.944 692.317 346.536 690.809 347.709 688.797C348.882 686.786 349.719 684.523 350.306 682.093C350.892 679.579 351.143 677.065 351.143 674.467V638.012H367.563V674.467C367.563 679.411 366.976 684.021 365.72 688.295C364.463 692.569 362.62 696.34 360.023 699.608C357.51 702.877 354.243 705.391 350.222 707.234C346.201 709.078 341.426 709.916 335.897 709.916H335.813Z" fill="#006039"/>
<path d="M380.213 709.413V638.012H396.716V694.915H431.313V709.413H380.213Z" fill="#006039"/>
<path d="M483.501 652.51H461.805V709.413H445.302V652.51H423.521V638.012H483.501V652.51Z" fill="#006039"/>
<path d="M563.503 652.51H541.806V709.413H525.303V652.51H503.523V638.012H563.503V652.51Z" fill="#006039"/>
<path d="M571.545 709.413V638.012H603.63C607.064 638.012 610.164 638.682 613.096 640.107C615.944 641.532 618.457 643.375 620.468 645.638C622.478 647.901 624.154 650.499 625.326 653.348C626.499 656.197 627.085 659.214 627.085 662.231C627.085 665.248 626.583 667.93 625.661 670.612C624.656 673.294 623.316 675.64 621.557 677.735C619.797 679.83 617.787 681.506 615.441 682.847L631.107 709.413H612.928L599.274 686.367H588.132V709.413H571.629H571.545ZM588.048 671.953H603.211C604.467 671.953 605.64 671.534 606.645 670.779C607.651 670.025 608.572 668.852 609.242 667.343C609.912 665.835 610.248 664.159 610.248 662.315C610.248 660.304 609.829 658.544 609.075 657.119C608.321 655.695 607.316 654.521 606.143 653.767C604.97 652.929 603.797 652.594 602.541 652.594H587.964V672.037L588.048 671.953Z" fill="#006039"/>
<path d="M656.907 638.012H674.583L699.295 709.413H682.374L677.515 693.407H653.975L649.117 709.413H632.195L656.823 638.012H656.907ZM674.164 682.177L665.787 654.605L657.41 682.177H674.164Z" fill="#006039"/>
<path d="M706.249 709.413V638.012H732.888C740.763 638.012 747.297 639.604 752.575 642.789C757.852 645.973 761.873 650.247 764.47 655.695C767.151 661.058 768.407 667.092 768.407 673.629C768.407 680.836 766.899 687.205 763.967 692.569C761.035 697.932 756.847 702.122 751.569 705.055C746.208 707.989 740.009 709.497 732.805 709.497H706.166L706.249 709.413ZM751.653 673.629C751.653 669.439 750.899 665.835 749.475 662.65C747.967 659.466 745.873 656.952 743.025 655.192C740.176 653.432 736.826 652.51 732.888 652.51H722.752V694.915H732.888C736.909 694.915 740.344 693.993 743.108 692.15C745.873 690.306 748.051 687.792 749.475 684.523C750.983 681.255 751.653 677.651 751.653 673.629Z" fill="#006039"/>
<path d="M828.387 694.915V709.413H778.208V638.012H827.466V652.51H794.711V666.422H822.858V679.83H794.711V694.999H828.387V694.915Z" fill="#006039"/>
<path d="M838.439 709.413V638.012H870.523C873.958 638.012 877.057 638.682 879.989 640.107C882.838 641.532 885.351 643.375 887.361 645.638C889.372 647.901 891.047 650.499 892.22 653.348C893.393 656.197 893.979 659.214 893.979 662.231C893.979 665.248 893.476 667.93 892.555 670.612C891.55 673.294 890.209 675.64 888.45 677.735C886.691 679.83 884.68 681.506 882.335 682.847L898 709.413H879.822L866.167 686.367H855.026V709.413H838.523H838.439ZM854.942 671.953H870.104C871.361 671.953 872.534 671.534 873.539 670.779C874.544 670.025 875.466 668.852 876.136 667.343C876.806 665.835 877.141 664.159 877.141 662.315C877.141 660.304 876.722 658.544 875.968 657.119C875.214 655.695 874.209 654.521 873.036 653.767C871.864 652.929 870.691 652.594 869.434 652.594H854.858V672.037L854.942 671.953Z" fill="#006039"/>
</svg>
