<svg width="564" height="252" viewBox="0 0 564 252" fill="none" xmlns="http://www.w3.org/2000/svg">
<path d="M101.564 68.5723C100.421 69.2555 99.2791 69.8628 98.1367 70.546C99.2791 72.8234 100.345 75.1007 101.259 77.454C118.318 120.8 90.2927 170.143 49.7779 183.352C47.4932 184.187 45.3608 184.87 43 185.553C45.1324 191.702 47.3409 197.851 49.4732 204C52.1387 202.937 54.6518 201.799 57.2411 200.584C104.381 179.48 128.599 119.282 105.524 75.4803C104.305 73.127 103.011 70.7737 101.564 68.5723Z" fill="#A37E2C"/>
<path d="M121.668 68.5723C122.811 69.2555 123.953 69.8628 125.095 70.546C123.953 72.8234 122.887 75.1007 121.973 77.454C104.914 120.8 132.94 170.143 173.454 183.352C175.739 184.187 177.871 184.87 180.232 185.553C178.1 191.702 175.891 197.851 173.759 204C171.094 202.937 168.58 201.799 165.991 200.584C118.851 179.48 94.6332 119.282 117.708 75.4803C118.927 73.127 120.222 70.7737 121.668 68.5723Z" fill="#A37E2C"/>
<path d="M91.3587 63.6379C95.6908 63.6379 99.2027 60.1373 99.2027 55.819C99.2027 51.5007 95.6908 48 91.3587 48C87.0265 48 83.5146 51.5007 83.5146 55.819C83.5146 60.1373 87.0265 63.6379 91.3587 63.6379Z" fill="#A37E2C"/>
<path d="M131.797 63.6379C136.129 63.6379 139.641 60.1373 139.641 55.819C139.641 51.5007 136.129 48 131.797 48C127.465 48 123.953 51.5007 123.953 55.819C123.953 60.1373 127.465 63.6379 131.797 63.6379Z" fill="#A37E2C"/>
<path d="M248.392 142.587C249.077 142.966 250.372 143.498 252.352 144.333C254.332 145.092 256.617 145.547 259.282 145.547C261.491 145.547 263.242 145.168 264.613 144.485C265.984 143.801 267.05 142.663 267.735 141.144C268.421 139.626 268.878 137.728 269.182 135.299C269.411 132.946 269.563 130.061 269.563 126.797V93.6992H284.566V126.342C284.566 131.124 284.261 135.527 283.728 139.55C283.195 143.498 282.053 146.99 280.377 149.874C278.702 152.759 276.189 155.036 272.838 156.555C269.487 158.073 264.994 158.832 259.434 158.832C256.541 158.832 253.951 158.528 251.667 157.845C249.382 157.162 247.25 156.175 245.27 154.809L248.468 142.587H248.392Z" fill="white"/>
<path d="M292.41 125.43C292.41 121.558 293.096 117.687 294.543 113.891C295.989 110.096 298.122 106.604 300.94 103.491C303.757 100.379 307.184 97.8738 311.221 96.0519C315.257 94.23 319.75 93.2432 324.852 93.2432C330.945 93.2432 336.2 94.5336 340.693 97.1906C345.186 99.7716 348.537 103.188 350.822 107.363L339.246 115.486C338.332 113.208 337.037 111.386 335.438 110.096C333.839 108.805 332.087 107.894 330.107 107.363C328.203 106.831 326.299 106.604 324.472 106.604C321.654 106.604 319.217 107.135 317.085 108.274C314.952 109.413 313.201 110.931 311.754 112.753C310.383 114.65 309.317 116.7 308.631 119.053C307.946 121.331 307.565 123.608 307.565 125.886C307.565 128.467 307.946 130.972 308.784 133.325C309.621 135.678 310.764 137.804 312.287 139.626C313.81 141.448 315.561 142.89 317.694 143.953C319.826 145.015 322.187 145.547 324.776 145.547C326.604 145.547 328.432 145.243 330.336 144.712C332.24 144.18 333.991 143.194 335.59 141.827C337.19 140.461 338.408 138.715 339.322 136.513L351.659 143.801C350.289 146.989 348.156 149.646 345.262 151.923C342.368 154.201 339.017 155.871 335.362 157.085C331.706 158.3 328.051 158.831 324.396 158.831C319.674 158.831 315.409 157.845 311.525 155.947C307.641 154.049 304.214 151.468 301.397 148.28C298.579 145.091 296.294 141.523 294.771 137.5C293.248 133.553 292.41 129.453 292.41 125.354V125.43Z" fill="white"/>
<path d="M386.919 158.832C381.74 158.832 377.323 157.997 373.668 156.251C370.012 154.505 367.042 152.152 364.757 149.115C362.473 146.079 360.797 142.663 359.731 138.791C358.665 134.92 358.132 130.896 358.132 126.721V93.6992H373.135V126.721C373.135 129.226 373.363 131.58 373.896 133.781C374.353 136.058 375.191 138.032 376.257 139.702C377.323 141.448 378.77 142.815 380.522 143.877C382.273 144.94 384.482 145.471 386.995 145.471C389.508 145.471 391.716 144.94 393.468 143.953C395.22 142.89 396.667 141.524 397.733 139.702C398.799 137.88 399.561 135.831 400.094 133.629C400.627 131.352 400.855 129.074 400.855 126.721V93.6992H415.782V126.721C415.782 131.2 415.249 135.375 414.106 139.247C412.964 143.118 411.288 146.534 408.928 149.495C406.643 152.455 403.673 154.733 400.017 156.403C396.362 158.073 392.021 158.832 386.995 158.832H386.919Z" fill="white"/>
<path d="M427.281 158.377V93.6992H442.284V145.244H473.736V158.377H427.281Z" fill="white"/>
<path d="M521.182 106.832H501.457V158.377H486.455V106.832H466.654V93.6992H521.182V106.832Z" fill="white"/>
</svg>
