<svg width="472" height="539" viewBox="0 0 472 539" fill="none" xmlns="http://www.w3.org/2000/svg">
<g clip-path="url(#clip0_132_2414)">
<path d="M201.422 70.945C197.617 73.183 193.589 75.421 189.784 77.659C193.813 85.4921 197.394 93.3252 200.527 101.382C259.163 251.106 162.704 421.419 23.2754 467.075C15.4424 469.984 8.05688 472.446 0 474.684C7.38547 495.945 14.9947 517.207 22.3802 538.468C31.5561 534.663 40.2844 530.858 49.2365 526.606C211.493 453.87 294.747 245.734 215.521 94.668C211.269 86.3873 206.793 78.5543 201.87 70.7212L201.422 70.945Z" fill="#A37E2C"/>
<path d="M270.578 70.945C274.382 73.183 278.411 75.421 282.215 77.659C278.187 85.4921 274.606 93.3252 271.473 101.382C212.837 251.106 309.295 421.419 448.724 467.075C456.557 469.984 463.943 472.446 472 474.684C464.614 495.945 457.005 517.207 449.619 538.468C440.444 534.663 431.715 530.858 422.763 526.606C260.507 453.87 177.252 245.734 256.478 94.668C260.731 86.3873 265.206 78.5543 270.13 70.7212L270.578 70.945Z" fill="#A37E2C"/>
<path d="M166.284 54.1601C181.24 54.1601 193.364 42.0359 193.364 27.08C193.364 12.1241 181.24 0 166.284 0C151.328 0 139.204 12.1241 139.204 27.08C139.204 42.0359 151.328 54.1601 166.284 54.1601Z" fill="#A37E2C"/>
<path d="M305.488 54.1601C320.444 54.1601 332.568 42.0359 332.568 27.08C332.568 12.1241 320.444 0 305.488 0C290.532 0 278.408 12.1241 278.408 27.08C278.408 42.0359 290.532 54.1601 305.488 54.1601Z" fill="#A37E2C"/>
</g>
<defs>
<clipPath id="clip0_132_2414">
<rect width="472" height="538.468" fill="white"/>
</clipPath>
</defs>
</svg>
