<svg width="410" height="413" viewBox="0 0 410 413" fill="none" xmlns="http://www.w3.org/2000/svg">
<path d="M192.057 62.5662C190.633 63.4043 189.125 64.2423 187.701 65.0803C189.209 68.0135 190.549 70.9467 191.722 73.9636C213.67 130.029 177.565 193.804 125.375 210.9C122.443 211.989 119.679 212.911 116.663 213.749C119.428 221.711 122.276 229.672 125.04 237.634C128.475 236.209 131.742 234.784 135.093 233.192C195.827 205.955 226.989 128.017 197.334 71.4495C195.743 68.3487 194.067 65.4156 192.224 62.4824L192.057 62.5662Z" fill="black"/>
<path d="M217.943 62.5662C219.367 63.4043 220.875 64.2423 222.299 65.0803C220.792 68.0135 219.451 70.9467 218.278 73.9636C196.33 130.029 232.436 193.804 284.625 210.9C287.557 211.989 290.321 212.911 293.337 213.749C290.573 221.711 287.725 229.672 284.96 237.634C281.525 236.209 278.258 234.784 274.908 233.192C214.174 205.955 183.011 128.017 212.666 71.4495C214.257 68.3487 215.933 65.4156 217.776 62.4824L217.943 62.5662Z" fill="black"/>
<path d="M178.905 56.2806C184.503 56.2806 189.041 51.7407 189.041 46.1403C189.041 40.54 184.503 36 178.905 36C173.307 36 168.769 40.54 168.769 46.1403C168.769 51.7407 173.307 56.2806 178.905 56.2806Z" fill="black"/>
<path d="M231.01 56.2806C236.608 56.2806 241.147 51.7407 241.147 46.1403C241.147 40.54 236.608 36 231.01 36C225.412 36 220.874 40.54 220.874 46.1403C220.874 51.7407 225.412 56.2806 231.01 56.2806Z" fill="black"/>
<path d="M56.4346 359.066C57.1885 359.485 58.6127 360.071 60.7907 360.993C62.9687 361.831 65.4819 362.334 68.4138 362.334C70.8432 362.334 72.7699 361.915 74.2778 361.161C75.7857 360.407 76.9585 359.15 77.7124 357.473C78.4663 355.797 78.969 353.702 79.3041 351.021C79.5554 348.423 79.7229 345.238 79.7229 341.634V305.096H96.2258V341.132C96.2258 346.411 95.8907 351.272 95.3043 355.714C94.7179 360.071 93.4613 363.926 91.6184 367.111C89.7754 370.295 87.011 372.81 83.3251 374.486C79.6391 376.162 74.6966 377 68.5814 377C65.3981 377 62.5499 376.665 60.0368 375.91C57.5236 375.156 55.178 374.067 53 372.558L56.5184 359.066H56.4346Z" fill="black"/>
<path d="M104.854 340.042C104.854 335.768 105.607 331.494 107.199 327.304C108.791 323.114 111.136 319.259 114.236 315.823C117.335 312.387 121.105 309.621 125.545 307.61C129.985 305.599 134.927 304.509 140.54 304.509C147.242 304.509 153.022 305.934 157.964 308.867C162.907 311.716 166.593 315.488 169.106 320.097L156.373 329.064C155.367 326.55 153.943 324.539 152.184 323.114C150.425 321.689 148.498 320.684 146.32 320.097C144.226 319.51 142.132 319.259 140.121 319.259C137.022 319.259 134.341 319.846 131.995 321.103C129.65 322.36 127.723 324.036 126.131 326.047C124.623 328.142 123.451 330.405 122.697 333.003C121.943 335.517 121.524 338.031 121.524 340.545C121.524 343.395 121.943 346.16 122.864 348.758C123.786 351.356 125.042 353.702 126.718 355.714C128.393 357.725 130.32 359.317 132.665 360.491C135.011 361.664 137.608 362.25 140.456 362.25C142.467 362.25 144.477 361.915 146.571 361.329C148.666 360.742 150.592 359.653 152.352 358.144C154.111 356.636 155.451 354.708 156.456 352.278L170.027 360.323C168.519 363.843 166.174 366.776 162.991 369.29C159.807 371.804 156.121 373.648 152.1 374.989C148.079 376.33 144.058 376.916 140.037 376.916C134.844 376.916 130.152 375.827 125.88 373.732C121.608 371.637 117.838 368.787 114.738 365.267C111.639 361.748 109.126 357.809 107.45 353.367C105.775 349.009 104.854 344.484 104.854 339.959V340.042Z" fill="black"/>
<path d="M208.814 376.916C203.117 376.916 198.259 375.994 194.238 374.067C190.217 372.139 186.95 369.542 184.436 366.189C181.923 362.837 180.08 359.066 178.908 354.792C177.735 350.518 177.148 346.076 177.148 341.467V305.012H193.651V341.467C193.651 344.233 193.903 346.831 194.489 349.261C194.992 351.775 195.913 353.954 197.086 355.798C198.259 357.725 199.85 359.234 201.777 360.407C203.704 361.58 206.133 362.167 208.898 362.167C211.662 362.167 214.091 361.58 216.018 360.491C217.945 359.317 219.537 357.809 220.709 355.798C221.882 353.786 222.72 351.524 223.306 349.093C223.893 346.579 224.144 344.065 224.144 341.467V305.012H240.563V341.467C240.563 346.412 239.977 351.021 238.72 355.295C237.463 359.569 235.621 363.34 233.024 366.608C230.51 369.877 227.243 372.391 223.222 374.235C219.201 376.078 214.426 376.916 208.898 376.916H208.814Z" fill="black"/>
<path d="M253.213 376.413V305.012H269.716V361.915H304.313V376.413H253.213Z" fill="black"/>
<path d="M356.501 319.51H334.805V376.413H318.302V319.51H296.521V305.012H356.501V319.51Z" fill="black"/>
</svg>
