<svg width="1080" height="1080" viewBox="0 0 1080 1080" fill="none" xmlns="http://www.w3.org/2000/svg">
<rect width="1080" height="1080" fill="white"/>
<path d="M505.529 341.983C501.723 344.222 497.692 346.462 493.886 348.701C497.916 356.538 501.499 364.375 504.634 372.437C563.301 522.24 466.791 692.645 327.288 738.325C319.451 741.236 312.061 743.699 304 745.938C311.389 767.21 319.003 788.483 326.392 809.756C335.573 805.949 344.306 802.142 353.263 797.888C515.606 725.113 598.905 516.866 519.637 365.719C515.382 357.434 510.904 349.597 505.977 341.759L505.529 341.983Z" fill="#A37E2C"/>
<path d="M574.723 341.983C578.529 344.222 582.56 346.462 586.366 348.701C582.336 356.538 578.753 364.375 575.618 372.437C516.951 522.24 613.461 692.645 752.964 738.325C760.801 741.236 768.191 743.699 776.252 745.938C768.863 767.21 761.249 788.483 753.86 809.756C744.679 805.949 735.946 802.142 726.989 797.888C564.646 725.113 481.347 516.866 560.616 365.719C564.87 357.434 569.348 349.597 574.275 341.759L574.723 341.983Z" fill="#A37E2C"/>
<path d="M470.373 325.189C485.337 325.189 497.467 313.058 497.467 298.094C497.467 283.131 485.337 271 470.373 271C455.409 271 443.278 283.131 443.278 298.094C443.278 313.058 455.409 325.189 470.373 325.189Z" fill="#A37E2C"/>
<path d="M609.651 325.189C624.615 325.189 636.746 313.058 636.746 298.094C636.746 283.131 624.615 271 609.651 271C594.687 271 582.557 283.131 582.557 298.094C582.557 313.058 594.687 325.189 609.651 325.189Z" fill="#A37E2C"/>
</svg>
