<svg width="929" height="252" viewBox="0 0 929 252" fill="none" xmlns="http://www.w3.org/2000/svg">
<path d="M95.5637 68.5723C94.4214 69.2555 93.2791 69.8628 92.1367 70.546C93.2791 72.8234 94.3452 75.1007 95.2591 77.454C112.318 120.8 84.2927 170.143 43.7779 183.352C41.4932 184.187 39.3608 184.87 37 185.553C39.1324 191.702 41.3409 197.851 43.4732 204C46.1387 202.937 48.6518 201.799 51.2411 200.584C98.3815 179.48 122.599 119.282 99.5238 75.4803C98.3053 73.127 97.0107 70.7737 95.5637 68.5723Z" fill="#A37E2C"/>
<path d="M115.668 68.5723C116.811 69.2555 117.953 69.8628 119.095 70.546C117.953 72.8234 116.887 75.1007 115.973 77.454C98.9142 120.8 126.94 170.143 167.454 183.352C169.739 184.187 171.871 184.87 174.232 185.553C172.1 191.702 169.891 197.851 167.759 204C165.094 202.937 162.58 201.799 159.991 200.584C112.851 179.48 88.6332 119.282 111.708 75.4803C112.927 73.127 114.222 70.7737 115.668 68.5723Z" fill="#A37E2C"/>
<path d="M85.3587 63.6379C89.6908 63.6379 93.2027 60.1373 93.2027 55.819C93.2027 51.5007 89.6908 48 85.3587 48C81.0265 48 77.5146 51.5007 77.5146 55.819C77.5146 60.1373 81.0265 63.6379 85.3587 63.6379Z" fill="#A37E2C"/>
<path d="M125.797 63.6379C130.129 63.6379 133.641 60.1373 133.641 55.819C133.641 51.5007 130.129 48 125.797 48C121.465 48 117.953 51.5007 117.953 55.819C117.953 60.1373 121.465 63.6379 125.797 63.6379Z" fill="#A37E2C"/>
<path d="M242.392 142.587C243.077 142.966 244.372 143.498 246.352 144.333C248.332 145.092 250.617 145.547 253.282 145.547C255.491 145.547 257.242 145.168 258.613 144.485C259.984 143.801 261.05 142.663 261.735 141.144C262.421 139.626 262.878 137.728 263.182 135.299C263.411 132.946 263.563 130.061 263.563 126.797V93.6992H278.566V126.342C278.566 131.124 278.261 135.527 277.728 139.55C277.195 143.498 276.053 146.99 274.377 149.874C272.702 152.759 270.189 155.036 266.838 156.555C263.487 158.073 258.994 158.832 253.434 158.832C250.541 158.832 247.951 158.528 245.667 157.845C243.382 157.162 241.25 156.175 239.27 154.809L242.468 142.587H242.392Z" fill="#006039"/>
<path d="M286.41 125.43C286.41 121.558 287.096 117.687 288.543 113.891C289.989 110.096 292.122 106.604 294.94 103.491C297.757 100.379 301.184 97.8738 305.221 96.0519C309.257 94.23 313.75 93.2432 318.852 93.2432C324.945 93.2432 330.2 94.5336 334.693 97.1906C339.186 99.7716 342.537 103.188 344.822 107.363L333.246 115.486C332.332 113.208 331.037 111.386 329.438 110.096C327.839 108.805 326.087 107.894 324.107 107.363C322.203 106.831 320.299 106.604 318.472 106.604C315.654 106.604 313.217 107.135 311.085 108.274C308.952 109.413 307.201 110.931 305.754 112.753C304.383 114.65 303.317 116.7 302.631 119.053C301.946 121.331 301.565 123.608 301.565 125.886C301.565 128.467 301.946 130.972 302.784 133.325C303.621 135.678 304.764 137.804 306.287 139.626C307.81 141.448 309.561 142.89 311.694 143.953C313.826 145.015 316.187 145.547 318.776 145.547C320.604 145.547 322.432 145.243 324.336 144.712C326.24 144.18 327.991 143.194 329.59 141.827C331.19 140.461 332.408 138.715 333.322 136.513L345.659 143.801C344.289 146.989 342.156 149.646 339.262 151.923C336.368 154.201 333.017 155.871 329.362 157.085C325.706 158.3 322.051 158.831 318.396 158.831C313.674 158.831 309.409 157.845 305.525 155.947C301.641 154.049 298.214 151.468 295.397 148.28C292.579 145.091 290.294 141.523 288.771 137.5C287.248 133.553 286.41 129.453 286.41 125.354V125.43Z" fill="#006039"/>
<path d="M380.919 158.832C375.74 158.832 371.323 157.997 367.668 156.251C364.012 154.505 361.042 152.152 358.757 149.115C356.473 146.079 354.797 142.663 353.731 138.791C352.665 134.92 352.132 130.896 352.132 126.721V93.6992H367.135V126.721C367.135 129.226 367.363 131.58 367.896 133.781C368.353 136.058 369.191 138.032 370.257 139.702C371.323 141.448 372.77 142.815 374.522 143.877C376.273 144.94 378.482 145.471 380.995 145.471C383.508 145.471 385.716 144.94 387.468 143.953C389.22 142.89 390.667 141.524 391.733 139.702C392.799 137.88 393.561 135.831 394.094 133.629C394.627 131.352 394.855 129.074 394.855 126.721V93.6992H409.782V126.721C409.782 131.2 409.249 135.375 408.106 139.247C406.964 143.118 405.288 146.534 402.928 149.495C400.643 152.455 397.673 154.733 394.017 156.403C390.362 158.073 386.021 158.832 380.995 158.832H380.919Z" fill="#006039"/>
<path d="M421.281 158.377V93.6992H436.284V145.244H467.736V158.377H421.281Z" fill="#006039"/>
<path d="M515.182 106.832H495.457V158.377H480.455V106.832H460.654V93.6992H515.182V106.832Z" fill="#006039"/>
<path d="M587.91 106.832H568.186V158.377H553.183V106.832H533.383V93.6992H587.91V106.832Z" fill="#006039"/>
<path d="M595.222 158.377V93.6992H624.389C627.512 93.6992 630.329 94.3065 632.995 95.597C635.584 96.8875 637.869 98.5576 639.697 100.607C641.524 102.657 643.047 105.01 644.114 107.591C645.18 110.172 645.713 112.905 645.713 115.638C645.713 118.371 645.256 120.8 644.418 123.229C643.504 125.658 642.286 127.784 640.687 129.682C639.087 131.58 637.26 133.098 635.127 134.312L649.368 158.377H632.843L620.429 137.501H610.301V158.377H595.298H595.222ZM610.224 124.368H624.009C625.151 124.368 626.217 123.988 627.131 123.305C628.045 122.622 628.882 121.559 629.492 120.193C630.101 118.826 630.406 117.308 630.406 115.638C630.406 113.816 630.025 112.222 629.339 110.931C628.654 109.641 627.74 108.578 626.674 107.895C625.608 107.136 624.542 106.832 623.399 106.832H610.148V124.444L610.224 124.368Z" fill="#006039"/>
<path d="M672.824 93.6992H688.893L711.359 158.377H695.976L691.559 143.877H670.159L665.742 158.377H650.358L672.748 93.6992H672.824ZM688.512 133.705L680.897 108.73L673.281 133.705H688.512Z" fill="#006039"/>
<path d="M717.68 158.377V93.6992H741.897C749.056 93.6992 754.996 95.1416 759.794 98.0262C764.592 100.911 768.247 104.782 770.608 109.717C773.045 114.575 774.187 120.041 774.187 125.962C774.187 132.49 772.816 138.26 770.151 143.118C767.486 147.977 763.678 151.772 758.88 154.429C754.006 157.086 748.37 158.453 741.821 158.453H717.604L717.68 158.377ZM758.956 125.962C758.956 122.166 758.271 118.902 756.976 116.017C755.605 113.133 753.701 110.855 751.112 109.261C748.523 107.667 745.477 106.832 741.897 106.832H732.682V145.244H741.897C745.553 145.244 748.675 144.409 751.188 142.739C753.701 141.069 755.681 138.791 756.976 135.831C758.347 132.87 758.956 129.606 758.956 125.962Z" fill="#006039"/>
<path d="M828.715 145.244V158.377H783.098V93.6992H827.877V106.832H798.1V119.434H823.689V131.58H798.1V145.32H828.715V145.244Z" fill="#006039"/>
<path d="M837.853 158.377V93.6992H867.02C870.143 93.6992 872.96 94.3065 875.626 95.597C878.215 96.8875 880.5 98.5576 882.327 100.607C884.155 102.657 885.678 105.01 886.744 107.591C887.811 110.172 888.344 112.905 888.344 115.638C888.344 118.371 887.887 120.8 887.049 123.229C886.135 125.658 884.917 127.784 883.317 129.682C881.718 131.58 879.891 133.098 877.758 134.312L891.999 158.377H875.473L863.06 137.501H852.931V158.377H837.929H837.853ZM852.855 124.368H866.639C867.782 124.368 868.848 123.988 869.762 123.305C870.676 122.622 871.513 121.559 872.123 120.193C872.732 118.826 873.036 117.308 873.036 115.638C873.036 113.816 872.656 112.222 871.97 110.931C871.285 109.641 870.371 108.578 869.305 107.895C868.239 107.136 867.173 106.832 866.03 106.832H852.779V124.444L852.855 124.368Z" fill="#006039"/>
</svg>
