<svg width="818" height="413" viewBox="0 0 818 413" fill="none" xmlns="http://www.w3.org/2000/svg">
<path d="M396.057 62.5662C394.633 63.4043 393.125 64.2423 391.701 65.0803C393.209 68.0135 394.549 70.9467 395.722 73.9636C417.67 130.029 381.565 193.804 329.375 210.9C326.443 211.989 323.679 212.911 320.663 213.749C323.428 221.711 326.276 229.672 329.04 237.634C332.475 236.209 335.742 234.784 339.093 233.192C399.827 205.955 430.989 128.017 401.334 71.4495C399.743 68.3487 398.067 65.4156 396.224 62.4824L396.057 62.5662Z" fill="#A37E2C"/>
<path d="M421.943 62.5662C423.367 63.4043 424.875 64.2423 426.299 65.0803C424.792 68.0135 423.451 70.9467 422.278 73.9636C400.33 130.029 436.436 193.804 488.625 210.9C491.557 211.989 494.321 212.911 497.337 213.749C494.573 221.711 491.725 229.672 488.96 237.634C485.525 236.209 482.258 234.784 478.908 233.192C418.174 205.955 387.011 128.017 416.666 71.4495C418.257 68.3487 419.933 65.4156 421.776 62.4824L421.943 62.5662Z" fill="#A37E2C"/>
<path d="M382.905 56.2806C388.503 56.2806 393.041 51.7407 393.041 46.1403C393.041 40.54 388.503 36 382.905 36C377.307 36 372.769 40.54 372.769 46.1403C372.769 51.7407 377.307 56.2806 382.905 56.2806Z" fill="#A37E2C"/>
<path d="M435.01 56.2806C440.608 56.2806 445.147 51.7407 445.147 46.1403C445.147 40.54 440.608 36 435.01 36C429.412 36 424.874 40.54 424.874 46.1403C424.874 51.7407 429.412 56.2806 435.01 56.2806Z" fill="#A37E2C"/>
<path d="M53.4346 359.066C54.1885 359.485 55.6127 360.071 57.7907 360.993C59.9687 361.831 62.4819 362.334 65.4138 362.334C67.8432 362.334 69.7699 361.915 71.2778 361.161C72.7857 360.407 73.9585 359.15 74.7124 357.473C75.4663 355.797 75.969 353.702 76.3041 351.021C76.5554 348.423 76.7229 345.238 76.7229 341.634V305.096H93.2258V341.132C93.2258 346.411 92.8907 351.272 92.3043 355.714C91.7179 360.071 90.4613 363.926 88.6184 367.111C86.7754 370.295 84.011 372.81 80.3251 374.486C76.6391 376.162 71.6966 377 65.5814 377C62.3981 377 59.5499 376.665 57.0368 375.91C54.5236 375.156 52.178 374.067 50 372.558L53.5184 359.066H53.4346Z" fill="#006039"/>
<path d="M101.854 340.042C101.854 335.768 102.607 331.494 104.199 327.304C105.791 323.114 108.136 319.259 111.236 315.823C114.335 312.387 118.105 309.621 122.545 307.61C126.985 305.599 131.927 304.509 137.54 304.509C144.242 304.509 150.022 305.934 154.964 308.867C159.907 311.716 163.593 315.488 166.106 320.097L153.373 329.064C152.367 326.55 150.943 324.539 149.184 323.114C147.425 321.689 145.498 320.684 143.32 320.097C141.226 319.51 139.132 319.259 137.121 319.259C134.022 319.259 131.341 319.846 128.995 321.103C126.65 322.36 124.723 324.036 123.131 326.047C121.623 328.142 120.451 330.405 119.697 333.003C118.943 335.517 118.524 338.031 118.524 340.545C118.524 343.395 118.943 346.16 119.864 348.758C120.786 351.356 122.042 353.702 123.718 355.714C125.393 357.725 127.32 359.317 129.665 360.491C132.011 361.664 134.608 362.25 137.456 362.25C139.467 362.25 141.477 361.915 143.571 361.329C145.666 360.742 147.592 359.653 149.352 358.144C151.111 356.636 152.451 354.708 153.456 352.278L167.027 360.323C165.519 363.843 163.174 366.776 159.991 369.29C156.807 371.804 153.121 373.648 149.1 374.989C145.079 376.33 141.058 376.916 137.037 376.916C131.844 376.916 127.152 375.827 122.88 373.732C118.608 371.637 114.838 368.787 111.738 365.267C108.639 361.748 106.126 357.809 104.45 353.367C102.775 349.009 101.854 344.484 101.854 339.959V340.042Z" fill="#006039"/>
<path d="M205.814 376.916C200.117 376.916 195.259 375.994 191.238 374.067C187.217 372.139 183.95 369.542 181.436 366.189C178.923 362.837 177.08 359.066 175.908 354.792C174.735 350.518 174.148 346.076 174.148 341.467V305.012H190.651V341.467C190.651 344.233 190.903 346.831 191.489 349.261C191.992 351.775 192.913 353.954 194.086 355.798C195.259 357.725 196.85 359.234 198.777 360.407C200.704 361.58 203.133 362.167 205.898 362.167C208.662 362.167 211.091 361.58 213.018 360.491C214.945 359.317 216.537 357.809 217.709 355.798C218.882 353.786 219.72 351.524 220.306 349.093C220.893 346.579 221.144 344.065 221.144 341.467V305.012H237.563V341.467C237.563 346.412 236.977 351.021 235.72 355.295C234.463 359.569 232.621 363.34 230.024 366.608C227.51 369.877 224.243 372.391 220.222 374.235C216.201 376.078 211.426 376.916 205.898 376.916H205.814Z" fill="#006039"/>
<path d="M250.213 376.413V305.012H266.716V361.915H301.313V376.413H250.213Z" fill="#006039"/>
<path d="M353.501 319.51H331.805V376.413H315.302V319.51H293.521V305.012H353.501V319.51Z" fill="#006039"/>
<path d="M433.503 319.51H411.807V376.413H395.304V319.51H373.523V305.012H433.503V319.51Z" fill="#006039"/>
<path d="M441.545 376.413V305.012H473.629C477.064 305.012 480.163 305.683 483.095 307.107C485.943 308.532 488.457 310.376 490.467 312.638C492.478 314.901 494.153 317.499 495.326 320.348C496.499 323.198 497.085 326.215 497.085 329.232C497.085 332.249 496.582 334.93 495.661 337.612C494.656 340.294 493.315 342.64 491.556 344.735C489.797 346.831 487.786 348.507 485.441 349.848L501.106 376.413H482.928L469.273 353.367H458.132V376.413H441.629H441.545ZM458.048 338.953H473.21C474.467 338.953 475.64 338.534 476.645 337.78C477.65 337.025 478.572 335.852 479.242 334.344C479.912 332.835 480.247 331.159 480.247 329.315C480.247 327.304 479.828 325.544 479.074 324.12C478.32 322.695 477.315 321.522 476.142 320.767C474.969 319.929 473.797 319.594 472.54 319.594H457.964V339.037L458.048 338.953Z" fill="#006039"/>
<path d="M526.908 305.012H544.583L569.296 376.413H552.374L547.515 360.407H523.976L519.117 376.413H502.195L526.824 305.012H526.908ZM544.165 349.177L535.787 321.605L527.41 349.177H544.165Z" fill="#006039"/>
<path d="M576.25 376.413V305.012H602.889C610.763 305.012 617.298 306.604 622.575 309.789C627.853 312.974 631.874 317.248 634.471 322.695C637.151 328.058 638.408 334.092 638.408 340.629C638.408 347.836 636.9 354.205 633.968 359.569C631.036 364.932 626.847 369.123 621.57 372.056C616.208 374.989 610.009 376.497 602.805 376.497H576.166L576.25 376.413ZM621.654 340.629C621.654 336.439 620.9 332.835 619.476 329.651C617.968 326.466 615.873 323.952 613.025 322.192C610.177 320.432 606.826 319.51 602.889 319.51H592.753V361.915H602.889C606.91 361.915 610.345 360.994 613.109 359.15C615.873 357.306 618.051 354.792 619.476 351.524C620.983 348.255 621.654 344.652 621.654 340.629Z" fill="#006039"/>
<path d="M698.388 361.915V376.413H648.209V305.012H697.466V319.51H664.712V333.422H692.859V346.831H664.712V361.999H698.388V361.915Z" fill="#006039"/>
<path d="M708.438 376.413V305.012H740.523C743.957 305.012 747.057 305.683 749.989 307.107C752.837 308.532 755.35 310.376 757.361 312.638C759.371 314.901 761.047 317.499 762.219 320.348C763.392 323.198 763.979 326.215 763.979 329.232C763.979 332.249 763.476 334.93 762.554 337.612C761.549 340.294 760.209 342.64 758.45 344.735C756.69 346.831 754.68 348.507 752.334 349.848L768 376.413H749.821L736.167 353.367H725.025V376.413H708.522H708.438ZM724.941 338.953H740.104C741.36 338.953 742.533 338.534 743.538 337.78C744.544 337.025 745.465 335.852 746.135 334.344C746.806 332.835 747.141 331.159 747.141 329.315C747.141 327.304 746.722 325.544 745.968 324.12C745.214 322.695 744.209 321.522 743.036 320.767C741.863 319.929 740.69 319.594 739.434 319.594H724.858V339.037L724.941 338.953Z" fill="#006039"/>
</svg>
