<svg width="718" height="341" viewBox="0 0 718 341" fill="none" xmlns="http://www.w3.org/2000/svg">
<path d="M346.058 26.5662C344.634 27.4043 343.126 28.2423 341.702 29.0803C343.21 32.0135 344.55 34.9467 345.723 37.9636C367.671 94.0287 331.566 157.804 279.376 174.9C276.444 175.989 273.68 176.911 270.664 177.749C273.429 185.711 276.277 193.672 279.041 201.634C282.476 200.209 285.743 198.784 289.094 197.192C349.828 169.955 380.99 92.0174 351.335 35.4495C349.744 32.3487 348.068 29.4156 346.225 26.4824L346.058 26.5662Z" fill="white"/>
<path d="M371.943 26.5662C373.367 27.4043 374.875 28.2423 376.299 29.0803C374.792 32.0135 373.451 34.9467 372.278 37.9636C350.33 94.0287 386.436 157.804 438.625 174.9C441.557 175.989 444.321 176.911 447.337 177.749C444.573 185.711 441.725 193.672 438.96 201.634C435.525 200.209 432.258 198.784 428.908 197.192C368.174 169.955 337.011 92.0174 366.666 35.4495C368.257 32.3487 369.933 29.4156 371.776 26.4824L371.943 26.5662Z" fill="white"/>
<path d="M332.905 20.2806C338.503 20.2806 343.041 15.7407 343.041 10.1403C343.041 4.53997 338.503 0 332.905 0C327.307 0 322.769 4.53997 322.769 10.1403C322.769 15.7407 327.307 20.2806 332.905 20.2806Z" fill="white"/>
<path d="M385.01 20.2806C390.608 20.2806 395.147 15.7407 395.147 10.1403C395.147 4.53997 390.608 0 385.01 0C379.412 0 374.874 4.53997 374.874 10.1403C374.874 15.7407 379.412 20.2806 385.01 20.2806Z" fill="white"/>
<path d="M3.43461 323.065C4.18854 323.484 5.61265 324.071 7.7907 324.993C9.96874 325.831 12.4819 326.334 15.4138 326.334C17.8432 326.334 19.7699 325.915 21.2778 325.16C22.7857 324.406 23.9585 323.149 24.7124 321.473C25.4663 319.797 25.969 317.702 26.3041 315.02C26.5554 312.422 26.7229 309.237 26.7229 305.634V269.095H43.2258V305.131C43.2258 310.411 42.8907 315.271 42.3043 319.713C41.7179 324.071 40.4613 327.926 38.6184 331.11C36.7754 334.295 34.011 336.809 30.3251 338.485C26.6391 340.161 21.6966 340.999 15.5814 340.999C12.3981 340.999 9.54988 340.664 7.03676 339.91C4.52363 339.156 2.17804 338.066 0 336.558L3.51836 323.065H3.43461Z" fill="white"/>
<path d="M51.8535 304.042C51.8535 299.768 52.6074 295.494 54.1991 291.304C55.7907 287.113 58.1363 283.258 61.2358 279.822C64.3354 276.386 68.1051 273.621 72.5449 271.61C76.9848 269.598 81.9273 268.509 87.5399 268.509C94.2416 268.509 100.022 269.933 104.964 272.867C109.907 275.716 113.593 279.487 116.106 284.096L103.373 293.063C102.367 290.549 100.943 288.538 99.1841 287.113C97.4249 285.689 95.4982 284.683 93.3201 284.096C91.2259 283.51 89.1316 283.258 87.1211 283.258C84.0215 283.258 81.3409 283.845 78.9953 285.102C76.6497 286.359 74.723 288.035 73.1313 290.047C71.6235 292.142 70.4507 294.404 69.6967 297.002C68.9428 299.516 68.5239 302.031 68.5239 304.545C68.5239 307.394 68.9428 310.16 69.8643 312.757C70.7858 315.355 72.0423 317.702 73.7177 319.713C75.3931 321.725 77.3199 323.317 79.6655 324.49C82.011 325.663 84.6079 326.25 87.4562 326.25C89.4667 326.25 91.4772 325.915 93.5714 325.328C95.6657 324.741 97.5924 323.652 99.3516 322.144C101.111 320.635 102.451 318.708 103.456 316.277L117.027 324.323C115.519 327.842 113.174 330.775 109.991 333.29C106.807 335.804 103.121 337.647 99.1003 338.988C95.0793 340.329 91.0583 340.916 87.0373 340.916C81.8435 340.916 77.1523 339.826 72.88 337.731C68.6077 335.636 64.838 332.787 61.7385 329.267C58.639 325.747 56.1258 321.808 54.4504 317.367C52.775 313.009 51.8535 308.483 51.8535 303.958V304.042Z" fill="white"/>
<path d="M155.814 340.916C150.117 340.916 145.259 339.994 141.238 338.066C137.217 336.139 133.95 333.541 131.436 330.189C128.923 326.837 127.08 323.065 125.908 318.791C124.735 314.517 124.148 310.076 124.148 305.467V269.012H140.651V305.467C140.651 308.232 140.903 310.83 141.489 313.26C141.992 315.775 142.913 317.953 144.086 319.797C145.259 321.725 146.85 323.233 148.777 324.406C150.704 325.58 153.133 326.166 155.898 326.166C158.662 326.166 161.091 325.58 163.018 324.49C164.945 323.317 166.537 321.808 167.709 319.797C168.882 317.786 169.72 315.523 170.306 313.093C170.893 310.579 171.144 308.065 171.144 305.467V269.012H187.563V305.467C187.563 310.411 186.977 315.02 185.72 319.294C184.463 323.568 182.621 327.34 180.024 330.608C177.51 333.876 174.243 336.39 170.222 338.234C166.201 340.078 161.426 340.916 155.898 340.916H155.814Z" fill="white"/>
<path d="M200.213 340.413V269.012H216.716V325.915H251.313V340.413H200.213Z" fill="white"/>
<path d="M303.501 283.51H281.805V340.413H265.302V283.51H243.521V269.012H303.501V283.51Z" fill="white"/>
<path d="M383.503 283.51H361.807V340.413H345.304V283.51H323.523V269.012H383.503V283.51Z" fill="white"/>
<path d="M391.545 340.413V269.012H423.629C427.064 269.012 430.163 269.682 433.095 271.107C435.943 272.532 438.457 274.375 440.467 276.638C442.478 278.901 444.153 281.499 445.326 284.348C446.499 287.197 447.085 290.214 447.085 293.231C447.085 296.248 446.582 298.93 445.661 301.612C444.656 304.293 443.315 306.64 441.556 308.735C439.797 310.83 437.786 312.506 435.441 313.847L451.106 340.413H432.928L419.273 317.367H408.132V340.413H391.629H391.545ZM408.048 302.952H423.21C424.467 302.952 425.64 302.533 426.645 301.779C427.65 301.025 428.572 299.852 429.242 298.343C429.912 296.835 430.247 295.159 430.247 293.315C430.247 291.304 429.828 289.544 429.074 288.119C428.32 286.694 427.315 285.521 426.142 284.767C424.969 283.929 423.797 283.594 422.54 283.594H407.964V303.036L408.048 302.952Z" fill="white"/>
<path d="M476.908 269.012H494.583L519.296 340.413H502.374L497.515 324.406H473.976L469.117 340.413H452.195L476.824 269.012H476.908ZM494.165 313.177L485.787 285.605L477.41 313.177H494.165Z" fill="white"/>
<path d="M526.25 340.413V269.012H552.889C560.763 269.012 567.298 270.604 572.575 273.789C577.853 276.973 581.874 281.247 584.471 286.694C587.151 292.058 588.408 298.092 588.408 304.629C588.408 311.836 586.9 318.205 583.968 323.568C581.036 328.932 576.847 333.122 571.57 336.055C566.208 338.988 560.009 340.497 552.805 340.497H526.166L526.25 340.413ZM571.654 304.629C571.654 300.438 570.9 296.835 569.476 293.65C567.968 290.466 565.873 287.951 563.025 286.192C560.177 284.432 556.826 283.51 552.889 283.51H542.753V325.915H552.889C556.91 325.915 560.345 324.993 563.109 323.149C565.873 321.306 568.051 318.791 569.476 315.523C570.983 312.255 571.654 308.651 571.654 304.629Z" fill="white"/>
<path d="M648.388 325.915V340.413H598.209V269.012H647.466V283.51H614.712V297.421H642.859V310.83H614.712V325.999H648.388V325.915Z" fill="white"/>
<path d="M658.438 340.413V269.012H690.523C693.957 269.012 697.057 269.682 699.989 271.107C702.837 272.532 705.35 274.375 707.361 276.638C709.371 278.901 711.047 281.499 712.219 284.348C713.392 287.197 713.979 290.214 713.979 293.231C713.979 296.248 713.476 298.93 712.554 301.612C711.549 304.293 710.209 306.64 708.45 308.735C706.69 310.83 704.68 312.506 702.334 313.847L718 340.413H699.821L686.167 317.367H675.025V340.413H658.522H658.438ZM674.941 302.952H690.104C691.36 302.952 692.533 302.533 693.538 301.779C694.544 301.025 695.465 299.852 696.135 298.343C696.806 296.835 697.141 295.159 697.141 293.315C697.141 291.304 696.722 289.544 695.968 288.119C695.214 286.694 694.209 285.521 693.036 284.767C691.863 283.929 690.69 283.594 689.434 283.594H674.858V303.036L674.941 302.952Z" fill="white"/>
</svg>
