<svg width="1080" height="1080" viewBox="0 0 1080 1080" fill="none" xmlns="http://www.w3.org/2000/svg">
<rect width="1080" height="1080" fill="#006039"/>
<path d="M527.057 395.566C525.633 396.404 524.125 397.242 522.701 398.08C524.209 401.013 525.549 403.947 526.722 406.964C548.67 463.029 512.565 526.804 460.375 543.9C457.443 544.989 454.679 545.911 451.663 546.749C454.428 554.711 457.276 562.672 460.04 570.634C463.475 569.209 466.742 567.784 470.093 566.192C530.827 538.955 561.989 461.017 532.334 404.449C530.743 401.349 529.067 398.416 527.224 395.482L527.057 395.566Z" fill="#A37E2C"/>
<path d="M552.943 395.566C554.367 396.404 555.875 397.242 557.299 398.08C555.791 401.013 554.451 403.947 553.278 406.964C531.33 463.029 567.435 526.804 619.625 543.9C622.556 544.989 625.321 545.911 628.337 546.749C625.572 554.711 622.724 562.672 619.96 570.634C616.525 569.209 613.258 567.784 609.907 566.192C549.173 538.955 518.01 461.017 547.665 404.449C549.257 401.349 550.932 398.416 552.775 395.482L552.943 395.566Z" fill="#A37E2C"/>
<path d="M513.905 389.281C519.503 389.281 524.041 384.741 524.041 379.14C524.041 373.54 519.503 369 513.905 369C508.307 369 503.769 373.54 503.769 379.14C503.769 384.741 508.307 389.281 513.905 389.281Z" fill="#A37E2C"/>
<path d="M566.01 389.281C571.608 389.281 576.147 384.741 576.147 379.14C576.147 373.54 571.608 369 566.01 369C560.412 369 555.874 373.54 555.874 379.14C555.874 384.741 560.412 389.281 566.01 389.281Z" fill="#A37E2C"/>
<path d="M184.435 692.066C185.189 692.485 186.613 693.071 188.791 693.993C190.969 694.831 193.482 695.334 196.414 695.334C198.843 695.334 200.77 694.915 202.278 694.161C203.786 693.407 204.958 692.15 205.712 690.473C206.466 688.797 206.969 686.702 207.304 684.021C207.555 681.423 207.723 678.238 207.723 674.634V638.096H224.226V674.132C224.226 679.411 223.891 684.272 223.304 688.714C222.718 693.071 221.461 696.926 219.618 700.111C217.775 703.295 215.011 705.81 211.325 707.486C207.639 709.162 202.697 710 196.581 710C193.398 710 190.55 709.665 188.037 708.91C185.524 708.156 183.178 707.067 181 705.558L184.518 692.066H184.435Z" fill="white"/>
<path d="M232.854 673.042C232.854 668.768 233.607 664.494 235.199 660.304C236.791 656.114 239.136 652.259 242.236 648.823C245.335 645.387 249.105 642.621 253.545 640.61C257.985 638.599 262.927 637.509 268.54 637.509C275.242 637.509 281.022 638.934 285.964 641.867C290.907 644.716 294.593 648.487 297.106 653.097L284.373 662.064C283.367 659.55 281.943 657.538 280.184 656.114C278.425 654.689 276.498 653.683 274.32 653.097C272.226 652.51 270.132 652.259 268.121 652.259C265.022 652.259 262.341 652.845 259.995 654.102C257.65 655.359 255.723 657.035 254.131 659.047C252.623 661.142 251.451 663.405 250.697 666.003C249.943 668.517 249.524 671.031 249.524 673.545C249.524 676.394 249.943 679.16 250.864 681.758C251.786 684.356 253.042 686.702 254.718 688.713C256.393 690.725 258.32 692.317 260.665 693.49C263.011 694.664 265.608 695.25 268.456 695.25C270.467 695.25 272.477 694.915 274.571 694.328C276.666 693.742 278.592 692.652 280.352 691.144C282.111 689.635 283.451 687.708 284.456 685.278L298.027 693.323C296.519 696.843 294.174 699.776 290.991 702.29C287.807 704.804 284.121 706.648 280.1 707.989C276.079 709.329 272.058 709.916 268.037 709.916C262.844 709.916 258.152 708.827 253.88 706.731C249.608 704.636 245.838 701.787 242.738 698.267C239.639 694.747 237.126 690.809 235.45 686.367C233.775 682.009 232.854 677.484 232.854 672.958V673.042Z" fill="white"/>
<path d="M336.813 709.916C331.117 709.916 326.258 708.994 322.237 707.066C318.216 705.139 314.949 702.541 312.436 699.189C309.923 695.837 308.08 692.065 306.907 687.791C305.734 683.517 305.148 679.076 305.148 674.467V638.012H321.651V674.467C321.651 677.232 321.902 679.83 322.489 682.26C322.991 684.775 323.913 686.953 325.085 688.797C326.258 690.725 327.85 692.233 329.777 693.406C331.703 694.58 334.133 695.166 336.897 695.166C339.662 695.166 342.091 694.58 344.018 693.49C345.944 692.317 347.536 690.808 348.709 688.797C349.882 686.786 350.719 684.523 351.306 682.093C351.892 679.579 352.143 677.065 352.143 674.467V638.012H368.563V674.467C368.563 679.411 367.976 684.02 366.72 688.294C365.463 692.568 363.62 696.34 361.023 699.608C358.51 702.876 355.243 705.39 351.222 707.234C347.201 709.078 342.426 709.916 336.897 709.916H336.813Z" fill="white"/>
<path d="M381.213 709.413V638.012H397.716V694.915H432.313V709.413H381.213Z" fill="white"/>
<path d="M484.501 652.51H462.805V709.413H446.302V652.51H424.521V638.012H484.501V652.51Z" fill="white"/>
<path d="M564.503 652.51H542.806V709.413H526.303V652.51H504.523V638.012H564.503V652.51Z" fill="white"/>
<path d="M572.545 709.413V638.012H604.63C608.064 638.012 611.164 638.682 614.096 640.107C616.944 641.532 619.457 643.375 621.468 645.638C623.478 647.901 625.154 650.499 626.326 653.348C627.499 656.197 628.085 659.214 628.085 662.231C628.085 665.248 627.583 667.93 626.661 670.612C625.656 673.293 624.316 675.64 622.557 677.735C620.797 679.83 618.787 681.506 616.441 682.847L632.107 709.413H613.928L600.274 686.367H589.132V709.413H572.629H572.545ZM589.048 671.952H604.211C605.467 671.952 606.64 671.533 607.645 670.779C608.651 670.025 609.572 668.852 610.242 667.343C610.912 665.835 611.248 664.159 611.248 662.315C611.248 660.304 610.829 658.544 610.075 657.119C609.321 655.694 608.316 654.521 607.143 653.767C605.97 652.929 604.797 652.594 603.541 652.594H588.964V672.036L589.048 671.952Z" fill="white"/>
<path d="M657.907 638.012H675.583L700.295 709.413H683.374L678.515 693.406H654.975L650.117 709.413H633.195L657.823 638.012H657.907ZM675.164 682.177L666.787 654.605L658.41 682.177H675.164Z" fill="white"/>
<path d="M707.249 709.413V638.012H733.888C741.763 638.012 748.297 639.604 753.575 642.789C758.852 645.973 762.873 650.247 765.47 655.694C768.151 661.058 769.407 667.092 769.407 673.629C769.407 680.836 767.899 687.205 764.967 692.568C762.035 697.932 757.847 702.122 752.569 705.055C747.208 707.988 741.009 709.497 733.805 709.497H707.166L707.249 709.413ZM752.653 673.629C752.653 669.438 751.899 665.835 750.475 662.65C748.967 659.466 746.873 656.951 744.025 655.192C741.176 653.432 737.826 652.51 733.888 652.51H723.752V694.915H733.888C737.909 694.915 741.344 693.993 744.108 692.149C746.873 690.306 749.051 687.791 750.475 684.523C751.983 681.255 752.653 677.651 752.653 673.629Z" fill="white"/>
<path d="M829.387 694.915V709.413H779.208V638.012H828.466V652.51H795.711V666.421H823.858V679.83H795.711V694.999H829.387V694.915Z" fill="white"/>
<path d="M839.439 709.413V638.012H871.523C874.958 638.012 878.057 638.682 880.989 640.107C883.838 641.532 886.351 643.375 888.361 645.638C890.372 647.901 892.047 650.499 893.22 653.348C894.393 656.197 894.979 659.214 894.979 662.231C894.979 665.248 894.476 667.93 893.555 670.612C892.55 673.293 891.209 675.64 889.45 677.735C887.691 679.83 885.68 681.506 883.335 682.847L899 709.413H880.822L867.167 686.367H856.026V709.413H839.523H839.439ZM855.942 671.952H871.104C872.361 671.952 873.534 671.533 874.539 670.779C875.544 670.025 876.466 668.852 877.136 667.343C877.806 665.835 878.141 664.159 878.141 662.315C878.141 660.304 877.722 658.544 876.968 657.119C876.214 655.694 875.209 654.521 874.036 653.767C872.864 652.929 871.691 652.594 870.434 652.594H855.858V672.036L855.942 671.952Z" fill="white"/>
</svg>
