<svg width="1080" height="1080" viewBox="0 0 1080 1080" fill="none" xmlns="http://www.w3.org/2000/svg">
<rect width="1080" height="1080" fill="#006039"/>
<path d="M171.564 482.573C170.421 483.256 169.279 483.863 168.137 484.546C169.279 486.824 170.345 489.101 171.259 491.454C188.318 534.8 160.293 584.144 119.778 597.352C117.493 598.187 115.361 598.871 113 599.554C115.132 605.703 117.341 611.852 119.473 618C122.139 616.938 124.652 615.799 127.241 614.584C174.381 593.481 198.599 533.282 175.524 489.481C174.305 487.127 173.011 484.774 171.564 482.573Z" fill="#A37E2C"/>
<path d="M191.668 482.573C192.811 483.256 193.953 483.863 195.095 484.546C193.953 486.824 192.887 489.101 191.973 491.454C174.914 534.8 202.94 584.144 243.454 597.352C245.739 598.187 247.871 598.871 250.232 599.554C248.1 605.703 245.891 611.852 243.759 618C241.094 616.938 238.58 615.799 235.991 614.584C188.851 593.481 164.633 533.282 187.708 489.481C188.927 487.127 190.222 484.774 191.668 482.573Z" fill="#A37E2C"/>
<path d="M161.359 477.638C165.691 477.638 169.203 474.138 169.203 469.819C169.203 465.501 165.691 462 161.359 462C157.027 462 153.515 465.501 153.515 469.819C153.515 474.138 157.027 477.638 161.359 477.638Z" fill="#A37E2C"/>
<path d="M201.798 477.638C206.13 477.638 209.642 474.138 209.642 469.819C209.642 465.501 206.13 462 201.798 462C197.466 462 193.954 465.501 193.954 469.819C193.954 474.138 197.466 477.638 201.798 477.638Z" fill="#A37E2C"/>
<path d="M318.391 556.587C319.077 556.966 320.371 557.498 322.352 558.333C324.332 559.092 326.616 559.547 329.282 559.547C331.49 559.547 333.242 559.168 334.613 558.485C335.983 557.801 337.05 556.663 337.735 555.144C338.42 553.626 338.877 551.728 339.182 549.299C339.41 546.946 339.563 544.061 339.563 540.797V507.699H354.565V540.342C354.565 545.124 354.261 549.527 353.728 553.55C353.195 557.498 352.052 560.99 350.377 563.874C348.701 566.759 346.188 569.036 342.837 570.555C339.487 572.073 334.993 572.832 329.434 572.832C326.54 572.832 323.951 572.528 321.666 571.845C319.381 571.162 317.249 570.175 315.269 568.809L318.468 556.587H318.391Z" fill="white"/>
<path d="M362.41 539.43C362.41 535.559 363.095 531.687 364.542 527.892C365.989 524.096 368.121 520.604 370.939 517.492C373.757 514.379 377.184 511.874 381.22 510.052C385.256 508.23 389.75 507.243 394.852 507.243C400.944 507.243 406.199 508.534 410.692 511.191C415.186 513.772 418.536 517.188 420.821 521.363L409.245 529.486C408.332 527.208 407.037 525.386 405.438 524.096C403.838 522.805 402.087 521.895 400.107 521.363C398.203 520.832 396.299 520.604 394.471 520.604C391.653 520.604 389.216 521.135 387.084 522.274C384.952 523.413 383.2 524.931 381.753 526.753C380.382 528.651 379.316 530.7 378.631 533.054C377.945 535.331 377.565 537.608 377.565 539.886C377.565 542.467 377.945 544.972 378.783 547.325C379.621 549.678 380.763 551.804 382.286 553.626C383.809 555.448 385.561 556.89 387.693 557.953C389.826 559.016 392.187 559.547 394.776 559.547C396.604 559.547 398.431 559.243 400.335 558.712C402.239 558.181 403.991 557.194 405.59 555.827C407.189 554.461 408.408 552.715 409.322 550.513L421.659 557.801C420.288 560.989 418.156 563.646 415.262 565.924C412.368 568.201 409.017 569.871 405.361 571.086C401.706 572.3 398.051 572.832 394.395 572.832C389.673 572.832 385.409 571.845 381.525 569.947C377.641 568.049 374.214 565.468 371.396 562.28C368.578 559.092 366.294 555.524 364.771 551.5C363.247 547.553 362.41 543.454 362.41 539.354V539.43Z" fill="white"/>
<path d="M456.919 572.832C451.74 572.832 447.323 571.997 443.668 570.251C440.012 568.505 437.042 566.152 434.757 563.115C432.473 560.079 430.797 556.663 429.731 552.791C428.665 548.92 428.132 544.896 428.132 540.721V507.699H443.135V540.721C443.135 543.226 443.363 545.58 443.896 547.781C444.353 550.058 445.191 552.032 446.257 553.702C447.323 555.448 448.77 556.815 450.522 557.877C452.273 558.94 454.482 559.471 456.995 559.471C459.508 559.471 461.716 558.94 463.468 557.953C465.22 556.89 466.667 555.524 467.733 553.702C468.799 551.88 469.561 549.831 470.094 547.629C470.627 545.352 470.855 543.074 470.855 540.721V507.699H485.782V540.721C485.782 545.2 485.249 549.375 484.106 553.247C482.964 557.118 481.288 560.534 478.928 563.495C476.643 566.455 473.673 568.733 470.017 570.403C466.362 572.073 462.021 572.832 456.995 572.832H456.919Z" fill="white"/>
<path d="M497.281 572.377V507.699H512.284V559.244H543.736V572.377H497.281Z" fill="white"/>
<path d="M591.182 520.832H571.457V572.377H556.455V520.832H536.654V507.699H591.182V520.832Z" fill="white"/>
<path d="M663.91 520.832H644.185V572.377H629.183V520.832H609.382V507.699H663.91V520.832Z" fill="white"/>
<path d="M671.221 572.377V507.699H700.388C703.511 507.699 706.328 508.307 708.994 509.597C711.583 510.888 713.868 512.558 715.696 514.607C717.523 516.657 719.046 519.01 720.113 521.591C721.179 524.172 721.712 526.905 721.712 529.638C721.712 532.371 721.255 534.8 720.417 537.229C719.503 539.658 718.285 541.784 716.686 543.682C715.086 545.58 713.259 547.098 711.126 548.312L725.367 572.377H708.842L696.428 551.501H686.3V572.377H671.297H671.221ZM686.223 538.368H700.008C701.15 538.368 702.216 537.988 703.13 537.305C704.044 536.622 704.882 535.559 705.491 534.193C706.1 532.826 706.405 531.308 706.405 529.638C706.405 527.816 706.024 526.222 705.338 524.931C704.653 523.641 703.739 522.578 702.673 521.895C701.607 521.136 700.541 520.832 699.398 520.832H686.147V538.444L686.223 538.368Z" fill="white"/>
<path d="M748.823 507.699H764.892L787.358 572.377H771.975L767.558 557.877H746.158L741.741 572.377H726.357L748.747 507.699H748.823ZM764.511 547.705L756.896 522.73L749.28 547.705H764.511Z" fill="white"/>
<path d="M793.679 572.377V507.699H817.897C825.055 507.699 830.995 509.142 835.793 512.026C840.591 514.911 844.247 518.782 846.607 523.717C849.044 528.575 850.187 534.041 850.187 539.962C850.187 546.49 848.816 552.26 846.15 557.118C843.485 561.977 839.677 565.772 834.879 568.429C830.005 571.086 824.37 572.453 817.821 572.453H793.603L793.679 572.377ZM834.956 539.962C834.956 536.166 834.27 532.902 832.976 530.017C831.605 527.133 829.701 524.855 827.112 523.261C824.522 521.667 821.476 520.832 817.897 520.832H808.682V559.244H817.897C821.552 559.244 824.675 558.409 827.188 556.739C829.701 555.069 831.681 552.791 832.976 549.831C834.346 546.87 834.956 543.606 834.956 539.962Z" fill="white"/>
<path d="M904.714 559.244V572.377H859.097V507.699H903.877V520.832H874.1V533.434H899.688V545.58H874.1V559.32H904.714V559.244Z" fill="white"/>
<path d="M913.853 572.377V507.699H943.021C946.143 507.699 948.961 508.307 951.626 509.597C954.216 510.888 956.5 512.558 958.328 514.607C960.156 516.657 961.679 519.01 962.745 521.591C963.811 524.172 964.344 526.905 964.344 529.638C964.344 532.371 963.887 534.8 963.05 537.229C962.136 539.658 960.917 541.784 959.318 543.682C957.719 545.58 955.891 547.098 953.759 548.312L968 572.377H951.474L939.061 551.501H928.932V572.377H913.929H913.853ZM928.856 538.368H942.64C943.782 538.368 944.848 537.988 945.762 537.305C946.676 536.622 947.514 535.559 948.123 534.193C948.732 532.826 949.037 531.308 949.037 529.638C949.037 527.816 948.656 526.222 947.971 524.931C947.285 523.641 946.372 522.578 945.305 521.895C944.239 521.136 943.173 520.832 942.031 520.832H928.78V538.444L928.856 538.368Z" fill="white"/>
</svg>
