<svg width="929" height="252" viewBox="0 0 929 252" fill="none" xmlns="http://www.w3.org/2000/svg">
<path d="M95.5637 68.5723C94.4214 69.2555 93.2791 69.8628 92.1367 70.546C93.2791 72.8234 94.3452 75.1007 95.2591 77.454C112.318 120.8 84.2927 170.143 43.7779 183.352C41.4932 184.187 39.3608 184.87 37 185.553C39.1324 191.702 41.3409 197.851 43.4732 204C46.1387 202.937 48.6518 201.799 51.2411 200.584C98.3815 179.48 122.599 119.282 99.5238 75.4803C98.3053 73.127 97.0107 70.7737 95.5637 68.5723Z" fill="#A37E2C"/>
<path d="M115.668 68.5723C116.811 69.2555 117.953 69.8628 119.095 70.546C117.953 72.8234 116.887 75.1007 115.973 77.454C98.9142 120.8 126.94 170.143 167.454 183.352C169.739 184.187 171.871 184.87 174.232 185.553C172.1 191.702 169.891 197.851 167.759 204C165.094 202.937 162.58 201.799 159.991 200.584C112.851 179.48 88.6332 119.282 111.708 75.4803C112.927 73.127 114.222 70.7737 115.668 68.5723Z" fill="#A37E2C"/>
<path d="M85.3587 63.6379C89.6908 63.6379 93.2027 60.1373 93.2027 55.819C93.2027 51.5007 89.6908 48 85.3587 48C81.0265 48 77.5146 51.5007 77.5146 55.819C77.5146 60.1373 81.0265 63.6379 85.3587 63.6379Z" fill="#A37E2C"/>
<path d="M125.797 63.6379C130.129 63.6379 133.641 60.1373 133.641 55.819C133.641 51.5007 130.129 48 125.797 48C121.465 48 117.953 51.5007 117.953 55.819C117.953 60.1373 121.465 63.6379 125.797 63.6379Z" fill="#A37E2C"/>
<path d="M242.392 142.587C243.077 142.967 244.372 143.498 246.352 144.333C248.332 145.092 250.617 145.548 253.282 145.548C255.491 145.548 257.242 145.168 258.613 144.485C259.984 143.802 261.05 142.663 261.735 141.145C262.421 139.627 262.878 137.729 263.182 135.3C263.411 132.946 263.563 130.062 263.563 126.798V93.6997H278.566V126.342C278.566 131.125 278.261 135.527 277.728 139.551C277.195 143.498 276.053 146.99 274.377 149.875C272.702 152.76 270.189 155.037 266.838 156.555C263.487 158.073 258.994 158.833 253.434 158.833C250.541 158.833 247.951 158.529 245.667 157.846C243.382 157.163 241.25 156.176 239.27 154.809L242.468 142.587H242.392Z" fill="white"/>
<path d="M286.41 125.431C286.41 121.559 287.096 117.687 288.543 113.892C289.989 110.096 292.122 106.604 294.94 103.492C297.757 100.379 301.184 97.8743 305.221 96.0524C309.257 94.2305 313.75 93.2437 318.852 93.2437C324.945 93.2437 330.2 94.5341 334.693 97.1911C339.186 99.7721 342.537 103.188 344.822 107.363L333.246 115.486C332.332 113.209 331.037 111.387 329.438 110.096C327.839 108.806 326.087 107.895 324.107 107.363C322.203 106.832 320.299 106.604 318.472 106.604C315.654 106.604 313.217 107.136 311.085 108.274C308.952 109.413 307.201 110.931 305.754 112.753C304.383 114.651 303.317 116.701 302.631 119.054C301.946 121.331 301.565 123.609 301.565 125.886C301.565 128.467 301.946 130.972 302.784 133.325C303.621 135.679 304.764 137.804 306.287 139.626C307.81 141.448 309.561 142.89 311.694 143.953C313.826 145.016 316.187 145.547 318.776 145.547C320.604 145.547 322.432 145.244 324.336 144.712C326.24 144.181 327.991 143.194 329.59 141.828C331.19 140.461 332.408 138.715 333.322 136.514L345.659 143.801C344.289 146.99 342.156 149.647 339.262 151.924C336.368 154.201 333.017 155.871 329.362 157.086C325.706 158.301 322.051 158.832 318.396 158.832C313.674 158.832 309.409 157.845 305.525 155.947C301.641 154.05 298.214 151.468 295.397 148.28C292.579 145.092 290.294 141.524 288.771 137.501C287.248 133.553 286.41 129.454 286.41 125.355V125.431Z" fill="white"/>
<path d="M380.919 158.833C375.74 158.833 371.323 157.998 367.668 156.252C364.012 154.506 361.042 152.152 358.757 149.116C356.473 146.079 354.797 142.663 353.731 138.792C352.665 134.92 352.132 130.897 352.132 126.722V93.6997H367.135V126.722C367.135 129.227 367.363 131.58 367.896 133.781C368.353 136.059 369.191 138.033 370.257 139.703C371.323 141.449 372.77 142.815 374.522 143.878C376.273 144.941 378.482 145.472 380.995 145.472C383.508 145.472 385.716 144.941 387.468 143.954C389.22 142.891 390.667 141.525 391.733 139.703C392.799 137.881 393.561 135.831 394.094 133.63C394.627 131.352 394.855 129.075 394.855 126.722V93.6997H409.782V126.722C409.782 131.2 409.249 135.376 408.106 139.247C406.964 143.119 405.288 146.535 402.928 149.495C400.643 152.456 397.673 154.733 394.017 156.403C390.362 158.073 386.021 158.833 380.995 158.833H380.919Z" fill="white"/>
<path d="M421.281 158.377V93.6997H436.284V145.244H467.736V158.377H421.281Z" fill="white"/>
<path d="M515.182 106.833H495.457V158.377H480.455V106.833H460.654V93.6997H515.182V106.833Z" fill="white"/>
<path d="M587.91 106.833H568.186V158.377H553.183V106.833H533.383V93.6997H587.91V106.833Z" fill="white"/>
<path d="M595.221 158.377V93.6997H624.388C627.511 93.6997 630.328 94.307 632.994 95.5975C635.583 96.888 637.868 98.5581 639.696 100.608C641.523 102.657 643.046 105.011 644.113 107.592C645.179 110.173 645.712 112.906 645.712 115.638C645.712 118.371 645.255 120.8 644.417 123.23C643.503 125.659 642.285 127.784 640.686 129.682C639.086 131.58 637.259 133.098 635.126 134.313L649.367 158.377H632.842L620.428 137.501H610.3V158.377H595.297H595.221ZM610.223 124.368H624.008C625.15 124.368 626.216 123.989 627.13 123.306C628.044 122.622 628.882 121.56 629.491 120.193C630.1 118.827 630.405 117.308 630.405 115.638C630.405 113.816 630.024 112.222 629.338 110.932C628.653 109.641 627.739 108.579 626.673 107.895C625.607 107.136 624.541 106.833 623.398 106.833H610.147V124.444L610.223 124.368Z" fill="white"/>
<path d="M672.823 93.6997H688.892L711.358 158.377H695.975L691.558 143.878H670.158L665.741 158.377H650.357L672.747 93.6997H672.823ZM688.511 133.706L680.896 108.73L673.28 133.706H688.511Z" fill="white"/>
<path d="M717.68 158.377V93.6997H741.897C749.056 93.6997 754.996 95.142 759.794 98.0267C764.592 100.911 768.247 104.783 770.608 109.717C773.045 114.576 774.187 120.041 774.187 125.962C774.187 132.491 772.816 138.26 770.151 143.119C767.486 147.977 763.678 151.773 758.88 154.43C754.006 157.087 748.37 158.453 741.821 158.453H717.604L717.68 158.377ZM758.956 125.962C758.956 122.167 758.271 118.903 756.976 116.018C755.605 113.133 753.701 110.856 751.112 109.262C748.523 107.668 745.477 106.833 741.897 106.833H732.682V145.244H741.897C745.553 145.244 748.675 144.409 751.188 142.739C753.701 141.069 755.681 138.792 756.976 135.831C758.347 132.871 758.956 129.606 758.956 125.962Z" fill="white"/>
<path d="M828.715 145.244V158.377H783.098V93.6997H827.877V106.833H798.1V119.434H823.689V131.58H798.1V145.32H828.715V145.244Z" fill="white"/>
<path d="M837.854 158.377V93.6997H867.021C870.144 93.6997 872.961 94.307 875.627 95.5975C878.216 96.888 880.501 98.5581 882.328 100.608C884.156 102.657 885.679 105.011 886.745 107.592C887.812 110.173 888.345 112.906 888.345 115.638C888.345 118.371 887.888 120.8 887.05 123.23C886.136 125.659 884.918 127.784 883.318 129.682C881.719 131.58 879.891 133.098 877.759 134.313L892 158.377H875.474L863.061 137.501H852.932V158.377H837.93H837.854ZM852.856 124.368H866.64C867.783 124.368 868.849 123.989 869.763 123.306C870.677 122.622 871.514 121.56 872.124 120.193C872.733 118.827 873.037 117.308 873.037 115.638C873.037 113.816 872.657 112.222 871.971 110.932C871.286 109.641 870.372 108.579 869.306 107.895C868.24 107.136 867.173 106.833 866.031 106.833H852.78V124.444L852.856 124.368Z" fill="white"/>
</svg>
