<svg width="818" height="441" viewBox="0 0 818 441" fill="none" xmlns="http://www.w3.org/2000/svg">
<path d="M396.057 76.5662C394.633 77.4043 393.125 78.2423 391.701 79.0803C393.209 82.0135 394.549 84.9467 395.722 87.9636C417.67 144.029 381.565 207.804 329.375 224.9C326.443 225.989 323.679 226.911 320.663 227.749C323.428 235.711 326.276 243.672 329.04 251.634C332.475 250.209 335.742 248.784 339.093 247.192C399.827 219.955 430.989 142.017 401.334 85.4495C399.743 82.3487 398.067 79.4156 396.224 76.4824L396.057 76.5662Z" fill="#A37E2C"/>
<path d="M421.943 76.5662C423.367 77.4043 424.875 78.2423 426.299 79.0803C424.792 82.0135 423.451 84.9467 422.278 87.9636C400.33 144.029 436.436 207.804 488.625 224.9C491.557 225.989 494.321 226.911 497.337 227.749C494.573 235.711 491.725 243.672 488.96 251.634C485.525 250.209 482.258 248.784 478.908 247.192C418.174 219.955 387.011 142.017 416.666 85.4495C418.257 82.3487 419.933 79.4156 421.776 76.4824L421.943 76.5662Z" fill="#A37E2C"/>
<path d="M382.905 70.2806C388.503 70.2806 393.041 65.7407 393.041 60.1403C393.041 54.54 388.503 50 382.905 50C377.307 50 372.769 54.54 372.769 60.1403C372.769 65.7407 377.307 70.2806 382.905 70.2806Z" fill="#A37E2C"/>
<path d="M435.01 70.2806C440.608 70.2806 445.147 65.7407 445.147 60.1403C445.147 54.54 440.608 50 435.01 50C429.412 50 424.874 54.54 424.874 60.1403C424.874 65.7407 429.412 70.2806 435.01 70.2806Z" fill="#A37E2C"/>
<path d="M53.4346 373.065C54.1885 373.484 55.6127 374.071 57.7907 374.993C59.9687 375.831 62.4819 376.334 65.4138 376.334C67.8432 376.334 69.7699 375.915 71.2778 375.16C72.7857 374.406 73.9585 373.149 74.7124 371.473C75.4663 369.797 75.969 367.702 76.3041 365.02C76.5554 362.422 76.7229 359.237 76.7229 355.634V319.095H93.2258V355.131C93.2258 360.411 92.8907 365.271 92.3043 369.713C91.7179 374.071 90.4613 377.926 88.6184 381.11C86.7754 384.295 84.011 386.809 80.3251 388.485C76.6391 390.161 71.6966 390.999 65.5814 390.999C62.3981 390.999 59.5499 390.664 57.0368 389.91C54.5236 389.156 52.178 388.066 50 386.558L53.5184 373.065H53.4346Z" fill="white"/>
<path d="M101.854 354.042C101.854 349.768 102.607 345.494 104.199 341.304C105.791 337.113 108.136 333.258 111.236 329.822C114.335 326.386 118.105 323.621 122.545 321.61C126.985 319.598 131.927 318.509 137.54 318.509C144.242 318.509 150.022 319.933 154.964 322.867C159.907 325.716 163.593 329.487 166.106 334.096L153.373 343.063C152.367 340.549 150.943 338.538 149.184 337.113C147.425 335.689 145.498 334.683 143.32 334.096C141.226 333.51 139.132 333.258 137.121 333.258C134.022 333.258 131.341 333.845 128.995 335.102C126.65 336.359 124.723 338.035 123.131 340.047C121.623 342.142 120.451 344.404 119.697 347.002C118.943 349.516 118.524 352.031 118.524 354.545C118.524 357.394 118.943 360.16 119.864 362.757C120.786 365.355 122.042 367.702 123.718 369.713C125.393 371.725 127.32 373.317 129.665 374.49C132.011 375.663 134.608 376.25 137.456 376.25C139.467 376.25 141.477 375.915 143.571 375.328C145.666 374.741 147.592 373.652 149.352 372.144C151.111 370.635 152.451 368.708 153.456 366.277L167.027 374.323C165.519 377.842 163.174 380.775 159.991 383.29C156.807 385.804 153.121 387.647 149.1 388.988C145.079 390.329 141.058 390.916 137.037 390.916C131.844 390.916 127.152 389.826 122.88 387.731C118.608 385.636 114.838 382.787 111.738 379.267C108.639 375.747 106.126 371.808 104.45 367.367C102.775 363.009 101.854 358.483 101.854 353.958V354.042Z" fill="white"/>
<path d="M205.814 390.916C200.117 390.916 195.259 389.994 191.238 388.066C187.217 386.139 183.95 383.541 181.436 380.189C178.923 376.837 177.08 373.065 175.908 368.791C174.735 364.517 174.148 360.076 174.148 355.467V319.012H190.651V355.467C190.651 358.232 190.903 360.83 191.489 363.26C191.992 365.775 192.913 367.953 194.086 369.797C195.259 371.725 196.85 373.233 198.777 374.406C200.704 375.58 203.133 376.166 205.898 376.166C208.662 376.166 211.091 375.58 213.018 374.49C214.945 373.317 216.537 371.808 217.709 369.797C218.882 367.786 219.72 365.523 220.306 363.093C220.893 360.579 221.144 358.065 221.144 355.467V319.012H237.563V355.467C237.563 360.411 236.977 365.02 235.72 369.294C234.463 373.568 232.621 377.34 230.024 380.608C227.51 383.876 224.243 386.39 220.222 388.234C216.201 390.078 211.426 390.916 205.898 390.916H205.814Z" fill="white"/>
<path d="M250.213 390.413V319.012H266.716V375.915H301.313V390.413H250.213Z" fill="white"/>
<path d="M353.501 333.51H331.805V390.413H315.302V333.51H293.521V319.012H353.501V333.51Z" fill="white"/>
<path d="M433.503 333.51H411.807V390.413H395.304V333.51H373.523V319.012H433.503V333.51Z" fill="white"/>
<path d="M441.545 390.413V319.012H473.629C477.064 319.012 480.163 319.682 483.095 321.107C485.943 322.532 488.457 324.375 490.467 326.638C492.478 328.901 494.153 331.499 495.326 334.348C496.499 337.197 497.085 340.214 497.085 343.231C497.085 346.248 496.582 348.93 495.661 351.612C494.656 354.293 493.315 356.64 491.556 358.735C489.797 360.83 487.786 362.506 485.441 363.847L501.106 390.413H482.928L469.273 367.367H458.132V390.413H441.629H441.545ZM458.048 352.952H473.21C474.467 352.952 475.64 352.533 476.645 351.779C477.65 351.025 478.572 349.852 479.242 348.343C479.912 346.835 480.247 345.159 480.247 343.315C480.247 341.304 479.828 339.544 479.074 338.119C478.32 336.694 477.315 335.521 476.142 334.767C474.969 333.929 473.797 333.594 472.54 333.594H457.964V353.036L458.048 352.952Z" fill="white"/>
<path d="M526.908 319.012H544.583L569.296 390.413H552.374L547.515 374.406H523.976L519.117 390.413H502.195L526.824 319.012H526.908ZM544.165 363.177L535.787 335.605L527.41 363.177H544.165Z" fill="white"/>
<path d="M576.25 390.413V319.012H602.889C610.763 319.012 617.298 320.604 622.575 323.789C627.853 326.973 631.874 331.247 634.471 336.694C637.151 342.058 638.408 348.092 638.408 354.629C638.408 361.836 636.9 368.205 633.968 373.568C631.036 378.932 626.847 383.122 621.57 386.055C616.208 388.988 610.009 390.497 602.805 390.497H576.166L576.25 390.413ZM621.654 354.629C621.654 350.438 620.9 346.835 619.476 343.65C617.968 340.466 615.873 337.951 613.025 336.192C610.177 334.432 606.826 333.51 602.889 333.51H592.753V375.915H602.889C606.91 375.915 610.345 374.993 613.109 373.149C615.873 371.306 618.051 368.791 619.476 365.523C620.983 362.255 621.654 358.651 621.654 354.629Z" fill="white"/>
<path d="M698.388 375.915V390.413H648.209V319.012H697.466V333.51H664.712V347.421H692.859V360.83H664.712V375.999H698.388V375.915Z" fill="white"/>
<path d="M708.438 390.413V319.012H740.523C743.957 319.012 747.057 319.682 749.989 321.107C752.837 322.532 755.35 324.375 757.361 326.638C759.371 328.901 761.047 331.499 762.219 334.348C763.392 337.197 763.979 340.214 763.979 343.231C763.979 346.248 763.476 348.93 762.554 351.612C761.549 354.293 760.209 356.64 758.45 358.735C756.69 360.83 754.68 362.506 752.334 363.847L768 390.413H749.821L736.167 367.367H725.025V390.413H708.522H708.438ZM724.941 352.952H740.104C741.36 352.952 742.533 352.533 743.538 351.779C744.544 351.025 745.465 349.852 746.135 348.343C746.806 346.835 747.141 345.159 747.141 343.315C747.141 341.304 746.722 339.544 745.968 338.119C745.214 336.694 744.209 335.521 743.036 334.767C741.863 333.929 740.69 333.594 739.434 333.594H724.858V353.036L724.941 352.952Z" fill="white"/>
</svg>
