<svg width="1080" height="1080" viewBox="0 0 1080 1080" fill="none" xmlns="http://www.w3.org/2000/svg">
<rect width="1080" height="1080" fill="white"/>
<path d="M527.058 395.566C525.634 396.404 524.126 397.242 522.702 398.08C524.21 401.013 525.55 403.947 526.723 406.964C548.671 463.029 512.566 526.804 460.376 543.9C457.444 544.989 454.68 545.911 451.664 546.749C454.429 554.711 457.277 562.672 460.041 570.634C463.476 569.209 466.743 567.784 470.094 566.192C530.828 538.955 561.99 461.017 532.335 404.449C530.744 401.349 529.068 398.416 527.225 395.482L527.058 395.566Z" fill="black"/>
<path d="M552.943 395.566C554.367 396.404 555.875 397.242 557.299 398.08C555.792 401.013 554.451 403.947 553.278 406.964C531.33 463.029 567.436 526.804 619.625 543.9C622.557 544.989 625.321 545.911 628.337 546.749C625.573 554.711 622.725 562.672 619.96 570.634C616.525 569.209 613.258 567.784 609.908 566.192C549.174 538.955 518.011 461.017 547.666 404.449C549.257 401.349 550.933 398.416 552.776 395.482L552.943 395.566Z" fill="black"/>
<path d="M513.905 389.281C519.503 389.281 524.041 384.741 524.041 379.14C524.041 373.54 519.503 369 513.905 369C508.307 369 503.769 373.54 503.769 379.14C503.769 384.741 508.307 389.281 513.905 389.281Z" fill="black"/>
<path d="M566.01 389.281C571.608 389.281 576.147 384.741 576.147 379.14C576.147 373.54 571.608 369 566.01 369C560.412 369 555.874 373.54 555.874 379.14C555.874 384.741 560.412 389.281 566.01 389.281Z" fill="black"/>
<path d="M184.435 692.066C185.189 692.485 186.613 693.071 188.791 693.993C190.969 694.831 193.482 695.334 196.414 695.334C198.843 695.334 200.77 694.915 202.278 694.161C203.786 693.407 204.958 692.15 205.712 690.473C206.466 688.797 206.969 686.702 207.304 684.021C207.555 681.423 207.723 678.238 207.723 674.634V638.096H224.226V674.132C224.226 679.411 223.891 684.272 223.304 688.714C222.718 693.071 221.461 696.926 219.618 700.111C217.775 703.295 215.011 705.81 211.325 707.486C207.639 709.162 202.697 710 196.581 710C193.398 710 190.55 709.665 188.037 708.91C185.524 708.156 183.178 707.067 181 705.558L184.518 692.066H184.435Z" fill="black"/>
<path d="M232.854 673.042C232.854 668.768 233.607 664.494 235.199 660.304C236.791 656.114 239.136 652.259 242.236 648.823C245.335 645.387 249.105 642.621 253.545 640.61C257.985 638.599 262.927 637.509 268.54 637.509C275.242 637.509 281.022 638.934 285.964 641.867C290.907 644.716 294.593 648.487 297.106 653.097L284.373 662.064C283.367 659.55 281.943 657.538 280.184 656.114C278.425 654.689 276.498 653.683 274.32 653.097C272.226 652.51 270.132 652.259 268.121 652.259C265.022 652.259 262.341 652.845 259.995 654.102C257.65 655.359 255.723 657.035 254.131 659.047C252.623 661.142 251.451 663.405 250.697 666.003C249.943 668.517 249.524 671.031 249.524 673.545C249.524 676.394 249.943 679.16 250.864 681.758C251.786 684.356 253.042 686.702 254.718 688.713C256.393 690.725 258.32 692.317 260.665 693.49C263.011 694.664 265.608 695.25 268.456 695.25C270.467 695.25 272.477 694.915 274.571 694.328C276.666 693.742 278.592 692.652 280.352 691.144C282.111 689.635 283.451 687.708 284.456 685.278L298.027 693.323C296.519 696.843 294.174 699.776 290.991 702.29C287.807 704.804 284.121 706.648 280.1 707.989C276.079 709.329 272.058 709.916 268.037 709.916C262.844 709.916 258.152 708.827 253.88 706.731C249.608 704.636 245.838 701.787 242.738 698.267C239.639 694.747 237.126 690.809 235.45 686.367C233.775 682.009 232.854 677.484 232.854 672.958V673.042Z" fill="black"/>
<path d="M336.814 709.916C331.117 709.916 326.259 708.994 322.238 707.066C318.217 705.139 314.95 702.541 312.436 699.189C309.923 695.837 308.08 692.065 306.908 687.791C305.735 683.517 305.148 679.076 305.148 674.467V638.012H321.651V674.467C321.651 677.232 321.903 679.83 322.489 682.26C322.992 684.775 323.913 686.953 325.086 688.797C326.259 690.725 327.85 692.233 329.777 693.406C331.704 694.58 334.133 695.166 336.898 695.166C339.662 695.166 342.091 694.58 344.018 693.49C345.945 692.317 347.537 690.808 348.709 688.797C349.882 686.786 350.72 684.523 351.306 682.093C351.893 679.579 352.144 677.065 352.144 674.467V638.012H368.563V674.467C368.563 679.411 367.977 684.02 366.72 688.294C365.463 692.568 363.621 696.34 361.024 699.608C358.51 702.876 355.243 705.39 351.222 707.234C347.201 709.078 342.426 709.916 336.898 709.916H336.814Z" fill="black"/>
<path d="M381.213 709.413V638.012H397.716V694.915H432.313V709.413H381.213Z" fill="black"/>
<path d="M484.501 652.51H462.805V709.413H446.302V652.51H424.521V638.012H484.501V652.51Z" fill="black"/>
<path d="M564.503 652.51H542.807V709.413H526.304V652.51H504.523V638.012H564.503V652.51Z" fill="black"/>
<path d="M572.545 709.413V638.012H604.629C608.064 638.012 611.163 638.682 614.095 640.107C616.943 641.532 619.457 643.375 621.467 645.638C623.478 647.901 625.153 650.499 626.326 653.348C627.499 656.197 628.085 659.214 628.085 662.231C628.085 665.248 627.582 667.93 626.661 670.612C625.656 673.293 624.315 675.64 622.556 677.735C620.797 679.83 618.786 681.506 616.441 682.847L632.106 709.413H613.928L600.273 686.367H589.132V709.413H572.629H572.545ZM589.048 671.952H604.21C605.467 671.952 606.64 671.533 607.645 670.779C608.65 670.025 609.572 668.852 610.242 667.343C610.912 665.835 611.247 664.159 611.247 662.315C611.247 660.304 610.828 658.544 610.074 657.119C609.32 655.694 608.315 654.521 607.142 653.767C605.969 652.929 604.797 652.594 603.54 652.594H588.964V672.036L589.048 671.952Z" fill="black"/>
<path d="M657.908 638.012H675.583L700.296 709.413H683.374L678.515 693.406H654.976L650.117 709.413H633.195L657.824 638.012H657.908ZM675.165 682.177L666.787 654.605L658.41 682.177H675.165Z" fill="black"/>
<path d="M707.25 709.413V638.012H733.889C741.763 638.012 748.298 639.604 753.575 642.789C758.853 645.973 762.874 650.247 765.471 655.694C768.151 661.058 769.408 667.092 769.408 673.629C769.408 680.836 767.9 687.205 764.968 692.568C762.036 697.932 757.847 702.122 752.57 705.055C747.208 707.988 741.009 709.497 733.805 709.497H707.166L707.25 709.413ZM752.654 673.629C752.654 669.438 751.9 665.835 750.476 662.65C748.968 659.466 746.873 656.951 744.025 655.192C741.177 653.432 737.826 652.51 733.889 652.51H723.753V694.915H733.889C737.91 694.915 741.345 693.993 744.109 692.149C746.873 690.306 749.051 687.791 750.476 684.523C751.983 681.255 752.654 677.651 752.654 673.629Z" fill="black"/>
<path d="M829.388 694.915V709.413H779.209V638.012H828.466V652.51H795.712V666.421H823.859V679.83H795.712V694.999H829.388V694.915Z" fill="black"/>
<path d="M839.438 709.413V638.012H871.523C874.957 638.012 878.057 638.682 880.989 640.107C883.837 641.532 886.35 643.375 888.361 645.638C890.371 647.901 892.047 650.499 893.219 653.348C894.392 656.197 894.979 659.214 894.979 662.231C894.979 665.248 894.476 667.93 893.554 670.612C892.549 673.293 891.209 675.64 889.45 677.735C887.69 679.83 885.68 681.506 883.334 682.847L899 709.413H880.821L867.167 686.367H856.025V709.413H839.522H839.438ZM855.941 671.952H871.104C872.36 671.952 873.533 671.533 874.538 670.779C875.544 670.025 876.465 668.852 877.135 667.343C877.806 665.835 878.141 664.159 878.141 662.315C878.141 660.304 877.722 658.544 876.968 657.119C876.214 655.694 875.209 654.521 874.036 653.767C872.863 652.929 871.69 652.594 870.434 652.594H855.858V672.036L855.941 671.952Z" fill="black"/>
</svg>
