<svg width="1080" height="1080" viewBox="0 0 1080 1080" fill="none" xmlns="http://www.w3.org/2000/svg">
<rect width="1080" height="1080" fill="#006039"/>
<path d="M527.452 395.586C526.026 396.424 524.517 397.263 523.091 398.102C524.601 401.037 525.942 403.972 527.117 406.992C549.09 463.098 512.943 526.921 460.694 544.03C457.759 545.12 454.991 546.042 451.972 546.881C454.74 554.848 457.591 562.816 460.359 570.783C463.797 569.357 467.068 567.932 470.423 566.338C531.226 539.081 562.424 461.086 532.736 404.476C531.142 401.373 529.465 398.437 527.62 395.502L527.452 395.586Z" fill="#A37E2C"/>
<path d="M553.368 395.586C554.793 396.424 556.303 397.263 557.729 398.102C556.219 401.037 554.877 403.972 553.703 406.992C531.73 463.098 567.877 526.921 620.125 544.03C623.061 545.12 625.828 546.042 628.848 546.881C626.08 554.848 623.228 562.816 620.461 570.783C617.022 569.357 613.751 567.932 610.397 566.338C549.594 539.081 518.395 461.086 548.084 404.476C549.678 401.373 551.355 398.437 553.2 395.502L553.368 395.586Z" fill="#A37E2C"/>
<path d="M514.285 389.296C519.889 389.296 524.432 384.752 524.432 379.148C524.432 373.543 519.889 369 514.285 369C508.68 369 504.137 373.543 504.137 379.148C504.137 384.752 508.68 389.296 514.285 389.296Z" fill="#A37E2C"/>
<path d="M566.45 389.296C572.054 389.296 576.597 384.752 576.597 379.148C576.597 373.543 572.054 369 566.45 369C560.845 369 556.302 373.543 556.302 379.148C556.302 384.752 560.845 389.296 566.45 389.296Z" fill="#A37E2C"/>
<path d="M391.439 692.305C392.193 692.725 393.619 693.312 395.8 694.234C397.98 695.073 400.496 695.576 403.431 695.576C405.864 695.576 407.792 695.157 409.302 694.402C410.812 693.647 411.986 692.389 412.741 690.712C413.495 689.035 413.999 686.938 414.334 684.254C414.586 681.654 414.753 678.467 414.753 674.861V638.295H431.275V674.358C431.275 679.642 430.94 684.506 430.353 688.951C429.766 693.312 428.508 697.17 426.662 700.357C424.817 703.544 422.05 706.06 418.36 707.737C414.67 709.414 409.721 710.253 403.599 710.253C400.412 710.253 397.561 709.917 395.045 709.163C392.529 708.408 390.181 707.318 388 705.808L391.522 692.305H391.439Z" fill="white"/>
<path d="M439.913 673.268C439.913 668.991 440.667 664.714 442.261 660.52C443.854 656.327 446.203 652.469 449.306 649.03C452.409 645.592 456.183 642.824 460.628 640.812C465.073 638.799 470.021 637.708 475.64 637.708C482.349 637.708 488.136 639.134 493.084 642.07C498.032 644.921 501.722 648.695 504.238 653.308L491.491 662.281C490.484 659.765 489.058 657.753 487.297 656.327C485.536 654.901 483.607 653.895 481.427 653.308C479.33 652.721 477.233 652.469 475.22 652.469C472.117 652.469 469.434 653.056 467.085 654.314C464.737 655.572 462.808 657.249 461.215 659.262C459.705 661.359 458.531 663.623 457.776 666.223C457.021 668.739 456.602 671.255 456.602 673.771C456.602 676.623 457.021 679.39 457.944 681.99C458.866 684.59 460.124 686.938 461.802 688.951C463.479 690.964 465.408 692.557 467.756 693.731C470.105 694.905 472.704 695.493 475.556 695.493C477.569 695.493 479.581 695.157 481.678 694.57C483.775 693.983 485.704 692.893 487.465 691.383C489.226 689.874 490.568 687.945 491.574 685.512L505.161 693.564C503.651 697.086 501.303 700.021 498.116 702.537C494.929 705.053 491.239 706.898 487.213 708.24C483.188 709.582 479.162 710.169 475.137 710.169C469.937 710.169 465.24 709.079 460.963 706.982C456.686 704.886 452.912 702.034 449.809 698.512C446.706 694.989 444.19 691.048 442.512 686.603C440.835 682.242 439.913 677.713 439.913 673.184V673.268Z" fill="white"/>
<path d="M543.992 710.169C538.289 710.169 533.424 709.246 529.399 707.317C525.373 705.389 522.102 702.789 519.586 699.434C517.07 696.079 515.225 692.305 514.051 688.028C512.877 683.751 512.29 679.306 512.29 674.693V638.211H528.812V674.693C528.812 677.461 529.063 680.061 529.65 682.493C530.154 685.009 531.076 687.189 532.25 689.035C533.424 690.963 535.018 692.473 536.947 693.647C538.876 694.821 541.308 695.408 544.075 695.408C546.843 695.408 549.275 694.821 551.204 693.731C553.133 692.557 554.727 691.047 555.901 689.035C557.075 687.022 557.913 684.757 558.5 682.325C559.088 679.809 559.339 677.293 559.339 674.693V638.211H575.777V674.693C575.777 679.641 575.19 684.254 573.932 688.531C572.674 692.809 570.829 696.583 568.229 699.853C565.713 703.124 562.442 705.64 558.417 707.485C554.391 709.33 549.611 710.169 544.075 710.169H543.992Z" fill="white"/>
<path d="M588.441 709.666V638.211H604.963V695.157H639.6V709.666H588.441Z" fill="white"/>
<path d="M691.848 652.72H670.127V709.666H653.605V652.72H631.8V638.211H691.848V652.72Z" fill="white"/>
</svg>
