<svg width="1080" height="1080" viewBox="0 0 1080 1080" fill="none" xmlns="http://www.w3.org/2000/svg">
<rect width="1080" height="1080" fill="#006039"/>
<path d="M359.453 482.599C358.312 483.283 357.172 483.891 356.032 484.575C357.172 486.856 358.236 489.136 359.149 491.492C376.175 534.895 348.203 584.302 307.765 597.528C305.485 598.364 303.356 599.048 301 599.732C303.128 605.889 305.333 612.046 307.461 618.203C310.121 617.139 312.63 615.999 315.214 614.782C362.265 593.651 386.437 533.375 363.405 489.516C362.189 487.16 360.897 484.803 359.453 482.599Z" fill="#A37E2C"/>
<path d="M379.519 482.599C380.659 483.283 381.8 483.891 382.94 484.575C381.8 486.856 380.735 489.136 379.823 491.492C362.797 534.895 390.769 584.302 431.207 597.528C433.487 598.364 435.615 599.048 437.972 599.732C435.843 605.889 433.639 612.046 431.511 618.203C428.85 617.139 426.342 615.999 423.758 614.782C376.707 593.651 352.535 533.375 375.567 489.516C376.783 487.16 378.075 484.803 379.519 482.599Z" fill="#A37E2C"/>
<path d="M349.267 477.658C353.591 477.658 357.096 474.153 357.096 469.829C357.096 465.505 353.591 462 349.267 462C344.943 462 341.438 465.505 341.438 469.829C341.438 474.153 344.943 477.658 349.267 477.658Z" fill="#A37E2C"/>
<path d="M389.629 477.658C393.953 477.658 397.458 474.153 397.458 469.829C397.458 465.505 393.953 462 389.629 462C385.305 462 381.8 465.505 381.8 469.829C381.8 474.153 385.305 477.658 389.629 477.658Z" fill="#A37E2C"/>
<path d="M506.002 556.71C506.686 557.09 507.978 557.622 509.954 558.458C511.931 559.218 514.211 559.674 516.871 559.674C519.076 559.674 520.824 559.294 522.192 558.61C523.56 557.926 524.624 556.786 525.309 555.266C525.993 553.746 526.449 551.845 526.753 549.413C526.981 547.057 527.133 544.168 527.133 540.9V507.759H542.107V540.444C542.107 545.232 541.803 549.641 541.271 553.67C540.739 557.622 539.599 561.119 537.926 564.007C536.254 566.895 533.746 569.176 530.401 570.696C527.057 572.216 522.572 572.976 517.023 572.976C514.135 572.976 511.551 572.672 509.27 571.988C506.99 571.304 504.862 570.316 502.885 568.948L506.078 556.71H506.002Z" fill="white"/>
<path d="M549.937 539.531C549.937 535.654 550.621 531.778 552.065 527.977C553.509 524.177 555.637 520.68 558.45 517.564C561.262 514.447 564.683 511.939 568.711 510.115C572.74 508.29 577.225 507.302 582.317 507.302C588.398 507.302 593.643 508.594 598.128 511.255C602.612 513.839 605.957 517.26 608.237 521.44L596.683 529.574C595.771 527.293 594.479 525.469 592.883 524.177C591.287 522.885 589.538 521.972 587.562 521.44C585.662 520.908 583.762 520.68 581.937 520.68C579.125 520.68 576.692 521.212 574.564 522.352C572.436 523.493 570.688 525.013 569.243 526.837C567.875 528.737 566.811 530.79 566.127 533.146C565.443 535.426 565.063 537.707 565.063 539.987C565.063 542.571 565.443 545.08 566.279 547.436C567.115 549.792 568.255 551.921 569.775 553.745C571.296 555.569 573.044 557.014 575.172 558.078C577.301 559.142 579.657 559.674 582.241 559.674C584.066 559.674 585.89 559.37 587.79 558.838C589.69 558.306 591.439 557.318 593.035 555.949C594.631 554.581 595.847 552.833 596.759 550.629L609.073 557.926C607.705 561.118 605.577 563.779 602.688 566.059C599.8 568.339 596.455 570.011 592.807 571.228C589.158 572.444 585.51 572.976 581.861 572.976C577.149 572.976 572.892 571.988 569.015 570.087C565.139 568.187 561.718 565.603 558.906 562.41C556.093 559.218 553.813 555.645 552.293 551.617C550.773 547.664 549.937 543.56 549.937 539.455V539.531Z" fill="white"/>
<path d="M644.266 572.976C639.097 572.976 634.689 572.14 631.04 570.392C627.391 568.644 624.427 566.287 622.147 563.247C619.866 560.206 618.194 556.786 617.13 552.909C616.066 549.033 615.534 545.004 615.534 540.824V507.759H630.508V540.824C630.508 543.332 630.736 545.688 631.268 547.893C631.724 550.173 632.56 552.149 633.624 553.822C634.689 555.57 636.133 556.938 637.881 558.002C639.629 559.066 641.834 559.598 644.342 559.598C646.85 559.598 649.055 559.066 650.803 558.078C652.551 557.014 653.995 555.646 655.059 553.822C656.124 551.997 656.884 549.945 657.416 547.741C657.948 545.46 658.176 543.18 658.176 540.824V507.759H673.074V540.824C673.074 545.308 672.542 549.489 671.402 553.365C670.262 557.242 668.589 560.663 666.233 563.627C663.953 566.591 660.988 568.872 657.34 570.544C653.691 572.216 649.359 572.976 644.342 572.976H644.266Z" fill="white"/>
<path d="M684.552 572.52V507.759H699.526V559.37H730.919V572.52H684.552Z" fill="white"/>
<path d="M778.274 520.909H758.587V572.52H743.613V520.909H723.85V507.759H778.274V520.909Z" fill="white"/>
</svg>
